<svg width="20" height="20" viewBox="0 0 20 20" fill="none" xmlns="http://www.w3.org/2000/svg">
<path d="M8.27856 16.9313C8.4201 17.1764 8.62365 17.3799 8.86878 17.5214C9.1139 17.663 9.39195 17.7375 9.67499 17.7375C9.95803 17.7375 10.2361 17.663 10.4812 17.5214C10.7263 17.3799 10.9299 17.1764 11.0714 16.9313" stroke="#6A7282" stroke-width="1.6125" stroke-linecap="round" stroke-linejoin="round"/>
<path d="M2.63008 12.3566C2.52476 12.4721 2.45525 12.6156 2.43002 12.7699C2.40478 12.9241 2.42491 13.0823 2.48795 13.2253C2.55098 13.3683 2.65422 13.4899 2.78509 13.5753C2.91596 13.6607 3.06883 13.7062 3.22509 13.7063H16.1251C16.2813 13.7064 16.4342 13.661 16.5652 13.5758C16.6962 13.4905 16.7995 13.3691 16.8627 13.2262C16.9259 13.0833 16.9463 12.9251 16.9212 12.7709C16.8962 12.6166 16.8269 12.473 16.7217 12.3574C15.6494 11.2521 14.5126 10.0774 14.5126 6.45005C14.5126 5.16706 14.0029 3.93663 13.0957 3.02942C12.1885 2.12221 10.9581 1.61255 9.67509 1.61255C8.39211 1.61255 7.16167 2.12221 6.25447 3.02942C5.34726 3.93663 4.83759 5.16706 4.83759 6.45005C4.83759 10.0774 3.69998 11.2521 2.63008 12.3566Z" stroke="#6A7282" stroke-width="1.6125" stroke-linecap="round" stroke-linejoin="round"/>
</svg>
