<svg width="18" height="18" viewBox="0 0 18 18" fill="none" xmlns="http://www.w3.org/2000/svg">
<path d="M13.5 15.75C13.5 14.5565 13.0259 13.4119 12.182 12.568C11.3381 11.7241 10.1935 11.25 9 11.25C7.80653 11.25 6.66193 11.7241 5.81802 12.568C4.97411 13.4119 4.5 14.5565 4.5 15.75" stroke="#656464" stroke-width="1.5" stroke-linecap="round" stroke-linejoin="round"/>
<path d="M9 11.25C10.6569 11.25 12 9.90685 12 8.25C12 6.59315 10.6569 5.25 9 5.25C7.34315 5.25 6 6.59315 6 8.25C6 9.90685 7.34315 11.25 9 11.25Z" stroke="#656464" stroke-width="1.5" stroke-linecap="round" stroke-linejoin="round"/>
<path d="M14.25 2.25H3.75C2.92157 2.25 2.25 2.92157 2.25 3.75V14.25C2.25 15.0784 2.92157 15.75 3.75 15.75H14.25C15.0784 15.75 15.75 15.0784 15.75 14.25V3.75C15.75 2.92157 15.0784 2.25 14.25 2.25Z" stroke="#656464" stroke-width="1.5" stroke-linecap="round" stroke-linejoin="round"/>
</svg>
