<svg width="9" height="9" viewBox="0 0 9 9" fill="none" xmlns="http://www.w3.org/2000/svg">
<mask id="path-1-inside-1_23_354" fill="white">
<path d="M0 4.3C0 1.92518 1.92518 0 4.3 0C6.67483 0 8.6 1.92518 8.6 4.3C8.6 6.67483 6.67483 8.6 4.3 8.6C1.92518 8.6 0 6.67483 0 4.3Z"/>
</mask>
<path d="M0 4.3C0 1.92518 1.92518 0 4.3 0C6.67483 0 8.6 1.92518 8.6 4.3C8.6 6.67483 6.67483 8.6 4.3 8.6C1.92518 8.6 0 6.67483 0 4.3Z" fill="#FB2C36"/>
<path d="M0 4.3M8.6 4.3M8.6 4.3M0 4.3M4.3 0M8.6 4.3M4.3 8.6M0 4.3M4.3 8.6V6.45C3.11259 6.45 2.15 5.48741 2.15 4.3H0H-2.15C-2.15 7.86224 0.737763 10.75 4.3 10.75V8.6ZM8.6 4.3H6.45C6.45 5.48741 5.48741 6.45 4.3 6.45V8.6V10.75C7.86224 10.75 10.75 7.86224 10.75 4.3H8.6ZM4.3 0V2.15C5.48741 2.15 6.45 3.11259 6.45 4.3H8.6H10.75C10.75 0.737763 7.86224 -2.15 4.3 -2.15V0ZM4.3 0V-2.15C0.737763 -2.15 -2.15 0.737763 -2.15 4.3H0H2.15C2.15 3.11259 3.11259 2.15 4.3 2.15V0Z" fill="white" mask="url(#path-1-inside-1_23_354)"/>
</svg>
