<svg width="283" height="92" viewBox="0 0 283 92" fill="none" xmlns="http://www.w3.org/2000/svg">
<path d="M110.534 32.4106V37.0064C108.826 38.2174 106.559 38.7763 103.765 38.7763C96.7156 38.7763 91.2194 34.429 91.2194 27.3802C91.2194 20.3002 96.7156 15.984 103.765 15.984C106.559 15.984 108.826 16.5119 110.534 17.7229V22.3497C109.23 21.1697 107.056 20.2071 104.603 20.2071C100.38 20.2071 97.1814 23.0639 97.1814 27.3802C97.1814 31.6654 100.38 34.5532 104.603 34.5532C107.056 34.5532 109.23 33.5596 110.534 32.4106ZM126.07 16.5119L135.013 38.2174H128.927L127.126 33.5596H118.71L117.034 38.2174H111.63L120.294 16.5119H126.07ZM120.046 29.8954H125.728L123.306 23.6228C122.996 22.8465 122.933 22.3807 122.84 21.7907H122.778C122.685 22.3807 122.561 22.8465 122.312 23.6228L120.046 29.8954ZM160.774 16.5119V38.2174H155.371V25.0202L149.688 32.9385L147.981 32.9075L142.391 25.1444V38.2174H136.988V21.6665C136.988 19.3687 136.584 17.7539 134.939 17.195V16.5119H142.236L149.067 25.7344L155.806 16.5119H160.774ZM182.232 23.2813C182.232 27.3491 179.095 30.0507 174.407 30.0507H171.053V38.2174H165.432V21.6665C165.432 19.3687 165.029 17.7539 163.383 17.195V16.5119H174.407C179.095 16.5119 182.232 19.1824 182.232 23.2813ZM176.487 23.3434C176.487 21.4802 175.276 20.3934 173.258 20.3934H171.053V26.2933H173.258C175.276 26.2933 176.487 25.2065 176.487 23.3434ZM208.459 27.3802C208.459 32.8764 204.578 38.8074 195.976 38.8074C188.803 38.8074 183.648 33.9943 183.648 27.3802C183.648 20.766 188.834 15.9529 196.038 15.9529C203.367 15.9529 208.459 20.6418 208.459 27.3802ZM202.435 27.3802C202.435 23.2813 199.858 20.3002 196.038 20.3002C192.219 20.3002 189.642 23.2813 189.642 27.3802C189.642 31.417 192.281 34.4601 196.038 34.4601C199.858 34.4601 202.435 31.4791 202.435 27.3802Z" fill="white"/>
<path d="M113.453 53.8133C113.453 59.4959 109.789 64.6816 102.491 64.6816H92.8962V48.1308C92.8962 45.8329 92.4925 44.2182 90.8467 43.6592V42.9761H102.491C109.82 42.9761 113.453 48.1618 113.453 53.8133ZM107.46 53.8133C107.46 50.4286 105.845 46.9508 100.721 46.9508H98.5167V60.5827H100.721C105.845 60.5827 107.46 57.1359 107.46 53.8133ZM140.35 53.8444C140.35 59.3406 136.469 65.2716 127.867 65.2716C120.694 65.2716 115.54 60.4585 115.54 53.8444C115.54 47.2303 120.725 42.4171 127.929 42.4171C135.258 42.4171 140.35 47.106 140.35 53.8444ZM134.326 53.8444C134.326 49.7455 131.749 46.7645 127.929 46.7645C124.11 46.7645 121.533 49.7455 121.533 53.8444C121.533 57.8812 124.172 60.9243 127.929 60.9243C131.749 60.9243 134.326 57.9433 134.326 53.8444ZM168.271 58.3159C168.271 61.3901 165.663 64.6816 160.85 64.6816H150.664V48.1308C150.664 45.8329 150.261 44.2182 148.615 43.6592V42.9761H160.011C165.011 42.9761 166.781 45.9882 166.781 48.6587C166.781 50.615 165.694 52.2297 164.203 52.9128C166.874 53.6891 168.271 55.6144 168.271 58.3159ZM161.44 49.1244C161.44 48.3171 161.067 46.4539 158.583 46.4539H156.378V51.7949H158.583C161.067 51.7949 161.44 49.9318 161.44 49.1244ZM162.588 58.0986C162.588 57.167 162.154 55.0244 159.08 55.0244H156.378V61.1727H159.08C162.154 61.1727 162.588 59.0301 162.588 58.0986ZM194.51 53.8444C194.51 59.3406 190.628 65.2716 182.027 65.2716C174.854 65.2716 169.699 60.4585 169.699 53.8444C169.699 47.2303 174.885 42.4171 182.089 42.4171C189.417 42.4171 194.51 47.106 194.51 53.8444ZM188.486 53.8444C188.486 49.7455 185.908 46.7645 182.089 46.7645C178.27 46.7645 175.692 49.7455 175.692 53.8444C175.692 57.8812 178.332 60.9243 182.089 60.9243C185.908 60.9243 188.486 57.9433 188.486 53.8444ZM211.486 58.5643C211.486 58.6885 211.486 58.8128 211.486 58.968C211.33 62.3838 208.536 65.1785 203.319 65.1785C200.493 65.1785 198.133 64.4643 196.86 63.5948V58.5022C198.102 59.8375 200.71 61.1106 202.946 61.1106C204.84 61.1106 205.803 60.2412 205.896 59.0301C205.896 58.968 205.896 58.937 205.896 58.8749C205.896 57.788 205.027 56.9807 203.164 56.0181C201.797 55.2728 200.804 54.7449 199.841 54.1549C198.506 53.3476 196.581 51.9502 196.581 48.7829C196.581 48.5966 196.581 48.3792 196.612 48.1929C196.891 44.2182 200.679 42.4171 204.778 42.4171C207.666 42.4171 209.529 43.1935 210.554 43.9387V48.6276C209.436 47.6339 207.635 46.5782 205.12 46.5782C203.195 46.5782 202.325 47.3545 202.294 48.1618C202.263 48.1929 202.263 48.255 202.263 48.286C202.263 49.3108 202.946 50.0871 205.089 51.267C206.641 52.1055 207.573 52.6023 208.474 53.1923C209.685 53.9686 211.486 55.4591 211.486 58.5643ZM237.995 53.8444C237.995 58.1296 235.573 62.4459 230.108 63.8122C232.903 64.5264 235.48 64.868 237.871 64.9611L237.312 69.2463C228.773 68.2216 221.01 66.2653 217.159 62.7564C214.768 60.5827 213.185 57.4465 213.185 53.8444C213.185 47.2303 218.37 42.4171 225.574 42.4171C232.903 42.4171 237.995 47.106 237.995 53.8444ZM231.971 53.8444C231.971 49.7455 229.394 46.7645 225.574 46.7645C221.755 46.7645 219.178 49.7455 219.178 53.8444C219.178 57.8812 221.817 60.9243 225.574 60.9243C229.394 60.9243 231.971 57.9433 231.971 53.8444ZM261.244 42.9761V55.8938C261.244 61.8869 257.455 65.1785 251.183 65.1785C244.879 65.1785 241.091 61.8869 241.091 55.8938V48.1308C241.091 45.8018 240.718 44.2182 239.041 43.6592V42.9761H246.711V56.0181C246.711 58.2228 247.736 60.8312 251.214 60.8312C253.946 60.8312 255.747 59.1233 255.747 56.0181V42.9761H261.244ZM280.059 60.7691V64.6816H265.837V48.1308C265.837 45.8329 265.433 44.2182 263.787 43.6592V42.9761H279.81V46.8887H271.457V51.7639H279.531V55.5833H271.457V60.7691H280.059Z" fill="white"/>
<path d="M100.103 74.0548L104.807 85.4703H101.606L100.658 83.0207H96.2327L95.3508 85.4703H92.5092L97.0656 74.0548H100.103ZM96.9349 81.0936H99.9235L98.6497 77.7947C98.4864 77.3864 98.4537 77.1414 98.4047 76.8311H98.3721C98.3231 77.1414 98.2577 77.3864 98.1271 77.7947L96.9349 81.0936ZM113.113 82.2531C113.113 82.3184 113.113 82.3837 113.113 82.4654C113.031 84.2618 111.561 85.7316 108.818 85.7316C107.332 85.7316 106.09 85.356 105.421 84.8987V82.2204C106.074 82.9227 107.446 83.5922 108.622 83.5922C109.618 83.5922 110.124 83.135 110.173 82.4981C110.173 82.4654 110.173 82.4491 110.173 82.4164C110.173 81.8448 109.716 81.4202 108.736 80.9139C108.017 80.522 107.495 80.2443 106.989 79.9341C106.286 79.5094 105.274 78.7745 105.274 77.1088C105.274 77.0108 105.274 76.8964 105.29 76.7985C105.437 74.7081 107.43 73.7609 109.585 73.7609C111.104 73.7609 112.084 74.1691 112.623 74.5611V77.0271C112.035 76.5045 111.088 75.9492 109.765 75.9492C108.752 75.9492 108.295 76.3575 108.279 76.7821C108.262 76.7985 108.262 76.8311 108.262 76.8475C108.262 77.3864 108.622 77.7947 109.749 78.4152C110.565 78.8562 111.055 79.1175 111.529 79.4278C112.166 79.8361 113.113 80.62 113.113 82.2531ZM122.156 82.2531C122.156 82.3184 122.156 82.3837 122.156 82.4654C122.074 84.2618 120.604 85.7316 117.86 85.7316C116.374 85.7316 115.133 85.356 114.464 84.8987V82.2204C115.117 82.9227 116.489 83.5922 117.664 83.5922C118.661 83.5922 119.167 83.135 119.216 82.4981C119.216 82.4654 119.216 82.4491 119.216 82.4164C119.216 81.8448 118.759 81.4202 117.779 80.9139C117.06 80.522 116.538 80.2443 116.031 79.9341C115.329 79.5094 114.317 78.7745 114.317 77.1088C114.317 77.0108 114.317 76.8964 114.333 76.7985C114.48 74.7081 116.472 73.7609 118.628 73.7609C120.147 73.7609 121.127 74.1691 121.666 74.5611V77.0271C121.078 76.5045 120.13 75.9492 118.808 75.9492C117.795 75.9492 117.338 76.3575 117.322 76.7821C117.305 76.7985 117.305 76.8311 117.305 76.8475C117.305 77.3864 117.664 77.7947 118.791 78.4152C119.608 78.8562 120.098 79.1175 120.571 79.4278C121.208 79.8361 122.156 80.62 122.156 82.2531ZM126.887 74.0548V85.4703H123.931V76.7658C123.931 75.541 123.719 74.6917 122.853 74.3978V74.0548H126.887ZM136.605 82.2531C136.605 82.3184 136.605 82.3837 136.605 82.4654C136.523 84.2618 135.053 85.7316 132.31 85.7316C130.824 85.7316 129.582 85.356 128.913 84.8987V82.2204C129.566 82.9227 130.938 83.5922 132.114 83.5922C133.11 83.5922 133.616 83.135 133.665 82.4981C133.665 82.4654 133.665 82.4491 133.665 82.4164C133.665 81.8448 133.208 81.4202 132.228 80.9139C131.51 80.522 130.987 80.2443 130.481 79.9341C129.778 79.5094 128.766 78.7745 128.766 77.1088C128.766 77.0108 128.766 76.8964 128.782 76.7985C128.929 74.7081 130.922 73.7609 133.077 73.7609C134.596 73.7609 135.576 74.1691 136.115 74.5611V77.0271C135.527 76.5045 134.58 75.9492 133.257 75.9492C132.244 75.9492 131.787 76.3575 131.771 76.7821C131.754 76.7985 131.754 76.8311 131.754 76.8475C131.754 77.3864 132.114 77.7947 133.241 78.4152C134.057 78.8562 134.547 79.1175 135.021 79.4278C135.658 79.8361 136.605 80.62 136.605 82.2531ZM146.676 74.0548V76.1125H143.198V85.4703H140.242V76.1125H136.845V74.0548H146.676ZM155.206 83.4126V85.4703H147.727V76.7658C147.727 75.5573 147.514 74.7081 146.649 74.4141V74.0548H155.076V76.1125H150.683V78.6765H154.929V80.6853H150.683V83.4126H155.206ZM151.859 70.6743L153.867 73.3852H152.218L151.189 72.3074L150.193 73.3852H148.576L150.536 70.6743H151.859ZM168.351 74.0548V85.4703H166.015L160.12 78.4642V85.4703H157.327V76.7658C157.327 75.5573 157.115 74.7081 156.249 74.4141V74.0548H159.94L165.574 80.7506L165.558 74.0548H168.351ZM180.08 82.4164V84.8334C179.181 85.4703 177.989 85.7643 176.519 85.7643C172.812 85.7643 169.922 83.4779 169.922 79.7707C169.922 76.0472 172.812 73.7772 176.519 73.7772C177.989 73.7772 179.181 74.0548 180.08 74.6917V77.1251C179.394 76.5045 178.25 75.9982 176.96 75.9982C174.739 75.9982 173.057 77.5007 173.057 79.7707C173.057 82.0244 174.739 83.5433 176.96 83.5433C178.25 83.5433 179.394 83.0207 180.08 82.4164ZM185.115 74.0548V85.4703H182.159V76.7658C182.159 75.541 181.946 74.6917 181.081 74.3978V74.0548H185.115ZM193.657 74.0548L198.36 85.4703H195.159L194.212 83.0207H189.786L188.904 85.4703H186.063L190.619 74.0548H193.657ZM190.489 81.0936H193.477L192.203 77.7947C192.04 77.3864 192.007 77.1414 191.958 76.8311H191.926C191.877 77.1414 191.811 77.3864 191.681 77.7947L190.489 81.0936ZM210.267 74.0548V76.0962H206.119V78.6765H210.12V80.6853H206.119V85.4703H203.163V76.7658C203.163 75.541 202.951 74.7081 202.085 74.4141V74.0548H210.267ZM217.085 74.0548L221.788 85.4703H218.588L217.64 83.0207H213.215L212.333 85.4703H209.491L214.048 74.0548H217.085ZM213.917 81.0936H216.905L215.632 77.7947C215.468 77.3864 215.436 77.1414 215.387 76.8311H215.354C215.305 77.1414 215.24 77.3864 215.109 77.7947L213.917 81.0936ZM235.337 74.0548V85.4703H232.495V78.5296L229.507 82.694L228.609 82.6777L225.669 78.5949V85.4703H222.827V76.7658C222.827 75.5573 222.615 74.7081 221.749 74.4141V74.0548H225.587L229.18 78.9052L232.724 74.0548H235.337ZM240.743 74.0548V85.4703H237.787V76.7658C237.787 75.541 237.575 74.6917 236.709 74.3978V74.0548H240.743ZM250.559 83.4126V85.4703H243.193V76.7658C243.193 75.5573 242.981 74.7081 242.116 74.4141V74.0548H246.149V83.4126H250.559ZM254.825 74.0548V85.4703H251.869V76.7658C251.869 75.541 251.657 74.6917 250.792 74.3978V74.0548H254.825ZM263.368 74.0548L268.071 85.4703H264.87L263.923 83.0207H259.497L258.615 85.4703H255.774L260.33 74.0548H263.368ZM260.199 81.0936H263.188L261.914 77.7947C261.751 77.3864 261.718 77.1414 261.669 76.8311H261.636C261.587 77.1414 261.522 77.3864 261.391 77.7947L260.199 81.0936ZM277.831 82.743L279.415 85.4703H276.263L274.891 83.1023C273.584 80.8649 273.127 80.7996 272.572 80.7996H272.066V85.4703H269.11V76.7658C269.11 75.5573 268.897 74.7081 268.032 74.4141V74.0548H273.699C275.985 74.0548 277.52 75.345 277.52 77.419C277.52 78.5132 276.883 79.5584 275.806 80.0157C276.41 80.4077 276.916 81.2406 277.439 82.1061L277.831 82.743ZM274.532 77.5007C274.532 76.5698 273.944 76.0146 272.931 76.0146H272.066V78.9705H272.931C273.944 78.9705 274.532 78.4152 274.532 77.5007Z" fill="white"/>
<path d="M68.3623 58.3187C68.3623 58.3187 58.3156 52.708 47.861 60.5302C47.861 60.5302 46.3096 55.681 43.3496 52.7522C43.3496 52.7522 58.5053 46.2814 68.3623 58.3187Z" fill="white"/>
<path d="M46.102 6.3937C46.102 6.3937 50.8369 9.10936 52.1051 14.2184C52.1051 14.2184 43.1577 17.0147 41.2866 3.05435C41.2866 3.05435 53.867 -1.08022 53.9346 13.2387C53.9346 13.2387 51.1202 7.12394 46.0995 6.3937H46.102Z" fill="white"/>
<path d="M33.0971 69.561C26.7095 69.7507 21.9876 65.1016 21.9876 65.1016C24.4824 70.733 32.5514 72.022 32.5514 72.022C15.7897 76.6269 16.5069 60.5668 16.5069 60.5668C33.4376 58.1864 33.0971 69.561 33.0971 69.561Z" fill="white"/>
<path d="M21.9956 52.1651C14.636 54.3246 7.73899 50.3616 7.73899 50.3616C12.3465 56.1411 22.1073 55.1874 22.1073 55.1874C4.04361 65.6264 0 46.7597 0 46.7597C18.9343 38.8518 21.9956 52.1651 21.9956 52.1651Z" fill="white"/>
<path d="M15.6154 36.1671C9.22512 35.2809 5.30106 29.86 5.30106 29.86C6.8395 35.8864 14.6564 38.5267 14.6564 38.5267C-2.80695 40.2938 0.607769 24.4235 0.607769 24.4235C17.8659 24.899 15.6154 36.1671 15.6154 36.1671Z" fill="white"/>
<path d="M25.7871 14.4159C25.7039 8.82349 29.8333 4.7487 29.8333 4.7487C24.8723 6.85886 23.6406 13.9066 23.6406 13.9066C19.823 -0.825556 33.8717 0.00863253 33.8717 0.00863253C35.7376 14.8577 25.7871 14.4159 25.7871 14.4159Z" fill="white"/>
<path d="M20.5013 27.8255C16.1666 23.1322 16.572 16.5159 16.572 16.5159C13.9629 22.0927 18.2872 29.0287 18.2872 29.0287C3.80968 19.4082 16.3953 9.40576 16.3953 9.40576C29.3057 20.614 20.5013 27.8255 20.5013 27.8255Z" fill="white"/>
<path d="M68.2635 62.5233C68.2635 62.5233 68.8924 76.5694 54.233 72.5414C54.233 72.5414 61.2911 71.4136 63.4714 66.489C63.4714 66.489 59.3395 70.5534 53.7548 70.3897C53.7548 70.3897 53.4586 60.4418 68.2635 62.5233Z" fill="white"/>
<path d="M77.1949 50.2601C77.1949 50.2601 71.2646 53.5501 65.0199 51.6141C65.0199 51.6141 67.8005 40.3044 83.8398 47.2872C83.8398 47.2872 80.1496 63.3213 64.8848 54.1894C64.8848 54.1894 73.1955 55.1275 77.1949 50.2575V50.2601Z" fill="white"/>
<path d="M66.9361 42.9265C66.9361 42.9265 75.4261 37.3939 75.4105 29.7562C75.4105 29.7562 72.4064 37.4043 65.0754 40.4136C65.0754 40.4136 58.9502 27.7006 79.3268 21.8535C79.3268 21.8535 88.2456 39.6833 66.9361 42.9265Z" fill="white"/>
<path d="M44.8772 46.263C44.8772 46.263 52.5851 40.1872 51.9068 32.8225C51.9068 32.8225 49.6719 40.4627 42.8632 44.0022C42.8632 44.0022 35.8493 32.2715 54.9993 24.86C54.9993 24.86 65.1525 41.2839 44.8772 46.263Z" fill="white"/>
<path d="M64.5472 12.8384C64.5472 12.8384 67.884 18.3139 66.2988 24.2884C66.2988 24.2884 55.5089 22.1003 61.4833 6.67688C61.4833 6.67688 76.7716 9.54327 68.7364 24.317C68.7364 24.317 69.3003 16.4299 64.5472 12.8384Z" fill="white"/>
<path d="M37.9104 22.2721C37.9104 22.2721 36.3928 28.8832 30.7795 32.2355C30.7795 32.2355 24.2256 22.6099 40.1427 15.3439C40.1427 15.3439 49.6021 28.8052 32.6064 34.0573C32.6064 34.0573 38.859 28.5038 37.9104 22.2721Z" fill="white"/>
<path d="M31.4868 55.434C16.2193 40.2497 23.4333 29.0284 23.4333 29.0284C23.4333 41.1567 31.6531 44.3817 36.4087 47.5755C47.5287 55.0364 49.9481 66.2447 49.9663 74.532C49.9663 74.5502 49.9663 74.5658 49.9663 74.584C49.9663 75.0388 49.9611 75.4832 49.9481 75.9197C50.0858 86.2886 58.9994 90.4856 58.9994 90.4856C51.2786 92.3618 42.4923 86.5251 42.4923 86.5251C30.1354 92.5723 21.0581 89.7553 21.0581 89.7553C42.4923 86.5251 38.1291 62.04 31.4868 55.4366V55.434Z" fill="white"/>
</svg>
