<svg width="38" height="35" viewBox="0 0 38 35" fill="none" xmlns="http://www.w3.org/2000/svg">
<path d="M38 11.1223C38 13.7404 37.0088 16.4269 35.4967 19.0084C35.0629 17.9075 34.3947 16.8876 33.4875 16.0456C34.3172 14.3584 34.8333 12.6919 34.8333 11.1223C34.8333 6.81699 31.5701 3.17893 27.7083 3.17893C24.1696 3.17893 22.154 4.61668 20.7955 5.87014L14.7408 11.5083C14.1819 12.0707 14.0489 13.016 14.4827 13.6213C14.7662 14.0168 15.1826 14.2551 15.6528 14.2933C16.1199 14.3362 16.5727 14.1646 16.9005 13.8326L23.5077 7.48582L25.6975 9.77985L23.7373 11.6624L31.2534 18.2808C33.0141 19.8314 33.4479 22.4352 32.262 24.3368C31.5321 25.5061 30.3398 26.2925 28.9924 26.4911C28.9006 26.5038 28.8103 26.5149 28.7185 26.5229C28.7122 27.341 28.4952 28.1512 28.0503 28.8661C27.3204 30.0354 26.1282 30.8218 24.7807 31.0204C24.4878 31.0617 24.1965 31.0792 23.9052 31.0649C23.8197 31.6717 23.6138 32.2627 23.2797 32.7981C22.5498 33.9674 21.3576 34.7522 20.0102 34.9508C19.7837 34.9841 19.5573 35 19.3341 35C18.2147 35 17.1285 34.5949 16.2767 33.8434L11.362 29.4206C6.17658 24.7213 0 17.7327 0 11.1223C0 4.99001 4.617 0.00158865 10.2917 0.00158865C12.8297 0.00158865 14.7773 0.598929 16.3052 1.38214L13.7734 3.73973C12.8076 3.39975 11.6676 3.17893 10.2917 3.17893C6.42992 3.17893 3.16667 6.81699 3.16667 11.1223C3.16667 15.3704 6.82892 21.0308 13.4821 27.063L18.3809 31.47C18.6928 31.7448 19.1251 31.8719 19.5526 31.8099C19.9864 31.7464 20.3585 31.5002 20.5976 31.1141C20.9617 30.5279 20.7812 29.6573 20.1843 29.133L15.1066 24.2892L17.2852 21.9824L23.1784 27.565C23.4618 27.8129 23.9004 27.9431 24.3216 27.8764C24.7554 27.8129 25.1275 27.565 25.3666 27.1806C25.7307 26.5943 25.5502 25.7238 24.9533 25.1979L19.3167 20.0776L21.4304 17.7137L27.3552 23.0039C27.6719 23.2836 28.1057 23.4138 28.5317 23.3471C28.9655 23.2836 29.3376 23.0357 29.5767 22.6513C29.9408 22.065 29.7603 21.1945 29.1634 20.6686L21.4399 13.8675L19.1124 16.1028C18.24 16.9797 17.0351 17.4754 15.7811 17.4754C14.1249 17.4754 12.7332 16.6238 11.9098 15.4768C10.5719 13.6117 10.8427 10.9221 12.54 9.21905L18.6437 3.53479C20.2936 2.01443 23.0201 0 27.7052 0C33.3798 0 37.9968 4.98842 37.9968 11.1207L38 11.1223Z" fill="#61B12E"/>
</svg>
