<svg width="11" height="11" viewBox="0 0 11 11" fill="none" xmlns="http://www.w3.org/2000/svg">
<path d="M8.34808 4.16992C8.52546 4.3505 8.52271 4.64063 8.34167 4.818L6.31308 6.80946C5.95421 7.16146 5.49221 7.337 5.02975 7.337C4.57233 7.337 4.11492 7.16467 3.75742 6.81954L2.88704 5.96383C2.70646 5.78646 2.70417 5.49633 2.88154 5.31575C3.05846 5.13471 3.3495 5.13242 3.52963 5.31025L4.39725 6.16321C4.75292 6.50696 5.31437 6.50513 5.67188 6.15496L7.7 4.16396C7.88013 3.98612 8.16933 3.98933 8.34808 4.16992ZM11 5.5C11 8.53279 8.53279 11 5.5 11C2.46721 11 0 8.53279 0 5.5C0 2.46721 2.46721 0 5.5 0C8.53279 0 11 2.46721 11 5.5ZM10.0833 5.5C10.0833 2.97275 8.02725 0.916667 5.5 0.916667C2.97275 0.916667 0.916667 2.97275 0.916667 5.5C0.916667 8.02725 2.97275 10.0833 5.5 10.0833C8.02725 10.0833 10.0833 8.02725 10.0833 5.5Z" fill="#658D3E"/>
</svg>
