<svg width="24" height="29" viewBox="0 0 24 29" fill="none" xmlns="http://www.w3.org/2000/svg">
<path d="M22.776 27.5504C22.9068 28.204 22.488 28.842 21.8388 28.9749C21.2052 29.1091 20.5536 28.6898 20.4228 28.0313C19.9716 25.7923 17.994 24.1671 15.7188 24.1671H8.28C6.006 24.1671 4.0272 25.7923 3.576 28.0313C3.444 28.6837 2.8176 29.1103 2.16 28.9749C1.5108 28.842 1.0908 28.204 1.2228 27.5504C1.8996 24.1889 4.8684 21.7493 8.28 21.7493H15.7188C19.1304 21.7493 22.098 24.1889 22.776 27.5504ZM16.8 16.7107C18.9204 16.3205 20.4012 14.2084 20.4 12.083V8.45807C20.4 5.79257 18.2472 3.62489 15.6 3.62489H8.4C5.7528 3.62489 3.6 5.79257 3.6 8.45807V12.083C3.6 14.1274 4.8852 15.9592 6.8004 16.6406C7.4268 16.863 8.1108 16.5331 8.3316 15.9036C8.5524 15.2741 8.2236 14.5841 7.5996 14.3618C6.6432 14.0211 6 13.1052 6 12.083V8.45807C6 7.12532 7.0764 6.04148 8.4 6.04148H15.6C16.9236 6.04148 18 7.12532 18 8.45807V12.083C18 13.1064 17.3568 14.0211 16.4004 14.3618C15.7752 14.5841 15.4476 15.2741 15.6684 15.9036C15.8436 16.4002 16.3056 16.7107 16.8 16.7107ZM15.6 0H8.4C3.7692 0 0 3.79405 0 8.45807V12.083C0 12.7499 0.5364 13.2913 1.2 13.2913C1.8636 13.2913 2.4 12.7499 2.4 12.083V8.45807C2.4 5.1268 5.0916 2.41659 8.4 2.41659H15.6C18.9084 2.41659 21.6 5.1268 21.6 8.45807V12.083C21.6 15.4142 18.9084 18.1244 15.6 18.1244H14.4C14.4 16.7893 13.326 15.7078 12 15.7078C10.674 15.7078 9.6 16.7893 9.6 18.1244C9.6 19.4596 10.674 20.541 12 20.541H15.6C20.2308 20.541 24 16.747 24 12.083V8.45807C24 3.79405 20.2308 0 15.6 0ZM7.2 10.2705C7.2 11.271 8.0064 12.083 9 12.083C9.9936 12.083 10.8 11.271 10.8 10.2705C10.8 9.27005 9.9936 8.45807 9 8.45807C8.0064 8.45807 7.2 9.27005 7.2 10.2705ZM16.8 10.2705C16.8 9.27005 15.9936 8.45807 15 8.45807C14.0064 8.45807 13.2 9.27005 13.2 10.2705C13.2 11.271 14.0064 12.083 15 12.083C15.9936 12.083 16.8 11.271 16.8 10.2705Z" fill="#C7171A"/>
</svg>
