<svg width="25" height="25" viewBox="0 0 25 25" fill="none" xmlns="http://www.w3.org/2000/svg">
<path d="M19.7917 4.16667H19.2625L16.9875 1.21667C16.6943 0.839382 16.3191 0.533767 15.8903 0.322973C15.4615 0.112179 14.9903 0.00173234 14.5125 0H10.4875C10.0097 0.00173234 9.53853 0.112179 9.10972 0.322973C8.68091 0.533767 8.3057 0.839382 8.0125 1.21667L5.7375 4.16667H5.20833C3.82751 4.16832 2.50371 4.71759 1.52731 5.69398C0.550919 6.67037 0.00165402 7.99417 0 9.375V19.7917C0.00165402 21.1725 0.550919 22.4963 1.52731 23.4727C2.50371 24.4491 3.82751 24.9983 5.20833 25H19.7917C21.1725 24.9983 22.4963 24.4491 23.4727 23.4727C24.4491 22.4963 24.9983 21.1725 25 19.7917V9.375C24.9983 7.99417 24.4491 6.67037 23.4727 5.69398C22.4963 4.71759 21.1725 4.16832 19.7917 4.16667ZM9.6625 2.48958C9.76007 2.3636 9.8851 2.26152 10.0281 2.19113C10.171 2.12073 10.3281 2.08386 10.4875 2.08333H14.5125C14.6718 2.08402 14.8289 2.12095 14.9718 2.19134C15.1148 2.26172 15.2398 2.36371 15.3375 2.48958L16.6313 4.16667H8.36875L9.6625 2.48958ZM22.9167 19.7917C22.9167 20.6205 22.5874 21.4153 22.0014 22.0014C21.4153 22.5874 20.6205 22.9167 19.7917 22.9167H5.20833C4.37953 22.9167 3.58468 22.5874 2.99862 22.0014C2.41257 21.4153 2.08333 20.6205 2.08333 19.7917V9.375C2.08333 8.5462 2.41257 7.75134 2.99862 7.16529C3.58468 6.57924 4.37953 6.25 5.20833 6.25H19.7917C20.6205 6.25 21.4153 6.57924 22.0014 7.16529C22.5874 7.75134 22.9167 8.5462 22.9167 9.375V19.7917Z" fill="#525252"/>
<path d="M12.5 8.33333C11.2639 8.33333 10.0555 8.69989 9.02769 9.38665C7.99988 10.0734 7.1988 11.0495 6.72575 12.1916C6.2527 13.3336 6.12893 14.5903 6.37009 15.8026C6.61125 17.015 7.2065 18.1287 8.08058 19.0028C8.95466 19.8768 10.0683 20.4721 11.2807 20.7132C12.4931 20.9544 13.7497 20.8306 14.8918 20.3576C16.0338 19.8845 17.0099 19.0835 17.6967 18.0556C18.3834 17.0278 18.75 15.8195 18.75 14.5833C18.7483 12.9262 18.0893 11.3375 16.9176 10.1657C15.7458 8.994 14.1571 8.33499 12.5 8.33333ZM12.5 18.75C11.6759 18.75 10.8703 18.5056 10.1851 18.0478C9.49992 17.59 8.96587 16.9392 8.6505 16.1778C8.33514 15.4165 8.25262 14.5787 8.41339 13.7705C8.57417 12.9622 8.971 12.2198 9.55372 11.6371C10.1364 11.0543 10.8789 10.6575 11.6871 10.4967C12.4954 10.336 13.3332 10.4185 14.0945 10.7338C14.8559 11.0492 15.5066 11.5833 15.9645 12.2685C16.4223 12.9537 16.6667 13.7592 16.6667 14.5833C16.6667 15.6884 16.2277 16.7482 15.4463 17.5296C14.6649 18.311 13.6051 18.75 12.5 18.75Z" fill="#525252"/>
</svg>
