<svg width="26" height="26" viewBox="0 0 26 26" fill="none" xmlns="http://www.w3.org/2000/svg">
<path d="M1.62573 14.0845C1.60081 14.0845 1.57481 14.0845 1.54881 14.0834C0.651825 14.0412 -0.0404138 13.2806 0.00183551 12.3835C0.32683 5.43987 6.03699 0 12.9995 0C15.6872 0 18.2514 0.824485 20.4148 2.33478L21.9834 0.765981C22.6659 0.0834236 23.8326 0.566631 23.8326 1.53196V6.50054C23.8326 7.09859 23.3473 7.58397 22.7493 7.58397H17.7812C16.816 7.58397 16.3328 6.41712 17.0153 5.73456L18.0694 4.68039C16.5549 3.75406 14.8151 3.25027 12.9995 3.25027C7.77571 3.25027 3.49228 7.32936 3.24853 12.5352C3.20737 13.4063 2.48913 14.0845 1.62573 14.0845ZM24.4501 11.9187C23.552 11.896 22.7926 12.571 22.7504 13.4659C22.5066 18.6728 18.2232 22.7508 12.9995 22.7508C11.1914 22.7508 9.44293 22.2514 7.92521 21.325L8.98361 20.2665C9.6661 19.584 9.18294 18.4171 8.2177 18.4171H3.24962C2.65163 18.4171 2.1663 18.9025 2.1663 19.5005V24.4691C2.1663 25.4345 3.33303 25.9177 4.01552 25.2351L5.58633 23.6641C7.75296 25.1733 10.3258 26 12.9995 26C19.963 26 25.6721 20.5601 25.9982 13.6165C26.0404 12.7194 25.3471 11.9588 24.4512 11.9166L24.4501 11.9187ZM18.5005 11.6901L18.038 11.9577C18.1073 12.2947 18.1452 12.6436 18.1452 13.0011C18.1452 13.3586 18.1084 13.7064 18.038 14.0444L18.5005 14.312C19.2773 14.7627 19.5416 15.7562 19.0909 16.533C18.7898 17.0531 18.2438 17.3434 17.6837 17.3434C17.4075 17.3434 17.1269 17.273 16.8701 17.1235L16.387 16.8429C15.8778 17.2925 15.282 17.6371 14.6244 17.8581V18.4171C14.6244 19.3153 13.8975 20.0423 12.9995 20.0423C12.1014 20.0423 11.3745 19.3153 11.3745 18.4171V17.8581C10.7169 17.6371 10.1211 17.2925 9.61193 16.8429L9.12986 17.1224C8.87311 17.2719 8.59253 17.3424 8.31629 17.3424C7.75513 17.3424 7.21022 17.052 6.90906 16.532C6.4584 15.7562 6.72273 14.7616 7.49946 14.3109L7.96204 14.0433C7.89271 13.7064 7.85479 13.3575 7.85479 13C7.85479 12.6425 7.89271 12.2936 7.96204 11.9567L7.49946 11.6891C6.72273 11.2384 6.4584 10.2449 6.90906 9.46804C7.35863 8.69122 8.35203 8.42579 9.12986 8.87757L9.61193 9.1571C10.1211 8.70748 10.7169 8.36295 11.3745 8.14193V7.58288C11.3745 6.68472 12.1014 5.95775 12.9995 5.95775C13.8975 5.95775 14.6244 6.68472 14.6244 7.58288V8.14193C15.282 8.36295 15.8778 8.70748 16.387 9.1571L16.8701 8.87649C17.6469 8.4247 18.6403 8.69014 19.0909 9.46696C19.5416 10.2438 19.2762 11.2384 18.5005 11.688V11.6901ZM14.8953 13.0011C14.8953 11.9556 14.0449 11.1051 12.9995 11.1051C11.9541 11.1051 11.1037 11.9556 11.1037 13.0011C11.1037 14.0466 11.9541 14.8971 12.9995 14.8971C14.0449 14.8971 14.8953 14.0466 14.8953 13.0011Z" fill="#505D3A"/>
</svg>
