<svg width="26" height="26" viewBox="0 0 26 26" fill="none" xmlns="http://www.w3.org/2000/svg">
<path d="M24.7531 8.32147L23.8117 7.58487H23.8344V2.16865H21.6677V5.90692L15.0031 0.692192C13.8244 -0.230731 12.1767 -0.230731 10.998 0.692192L1.24692 8.32147C0.455 8.94109 0 9.87484 0 10.8812V26H9.75V16.2508C9.75 15.6539 10.2353 15.1676 10.8333 15.1676H15.1667C15.7647 15.1676 16.25 15.6539 16.25 16.2508V26H26V10.8812C26 9.87484 25.545 8.94109 24.7531 8.32147ZM23.8333 23.8335H18.4167V16.2508C18.4167 14.4591 16.9585 13.0011 15.1667 13.0011H10.8333C9.0415 13.0011 7.58333 14.4591 7.58333 16.2508V23.8335H2.16667V10.8812C2.16667 10.5454 2.31833 10.2345 2.58267 10.0276L12.3327 2.3983C12.7259 2.09066 13.2741 2.09066 13.6673 2.3983L23.4173 10.0276C23.6817 10.2345 23.8333 10.5454 23.8333 10.8812V23.8335Z" fill="#505D3A"/>
</svg>
