<svg width="11" height="11" viewBox="0 0 11 11" fill="none" xmlns="http://www.w3.org/2000/svg">
<path d="M3.66711 9.625H1.56265C1.45921 9.62474 1.37541 9.54097 1.37517 9.43755V1.56245C1.37543 1.45903 1.45921 1.37524 1.56265 1.375H3.66711C4.04685 1.375 4.35469 1.06719 4.35469 0.6875C4.35469 0.307807 4.04685 0 3.66711 0H1.56265C0.700027 0.00100977 0.00100989 0.699961 0 1.56245V9.43753C0.00100989 10.3 0.700027 10.999 1.56265 11H3.66711C4.04685 11 4.35469 10.6922 4.35469 10.3125C4.35469 9.93281 4.04685 9.625 3.66711 9.625Z" fill="white"/>
<path d="M10.3972 4.04158L8.61772 2.2637C8.34911 1.99525 7.91372 1.99536 7.64524 2.26394C7.37676 2.53251 7.37687 2.96785 7.64548 3.2363L9.2095 4.79967L2.97952 4.8125C2.59978 4.8125 2.29194 5.12031 2.29194 5.5C2.29194 5.87969 2.59978 6.1875 2.97952 6.1875L9.23472 6.17605L7.64548 7.7651C7.38673 8.04302 7.40231 8.47803 7.68024 8.73675C7.94443 8.98264 8.35378 8.98245 8.61772 8.7363L10.3958 6.95842C11.2014 6.15297 11.2014 4.84707 10.3958 4.04162L10.3958 4.0416L10.3972 4.04158Z" fill="white"/>
</svg>
