<svg width="16" height="20" viewBox="0 0 16 20" fill="none" xmlns="http://www.w3.org/2000/svg">
<path d="M12.8 13.3333C12.8 11.4917 11.368 10 9.6 10C7.832 10 6.4 11.4917 6.4 13.3333C6.4 14.5667 7.048 15.6417 8 16.2167V20L9.6 18.3333L11.2 20V16.2167C12.152 15.6417 12.8 14.5583 12.8 13.3333ZM9.6 15C8.72 15 8 14.25 8 13.3333C8 12.4167 8.72 11.6667 9.6 11.6667C10.48 11.6667 11.2 12.4167 11.2 13.3333C11.2 14.25 10.48 15 9.6 15ZM9.928 0H2.4C1.08 0 0 1.125 0 2.5V20H6.4V18.3333H1.6V2.5C1.6 2.04167 1.96 1.66667 2.4 1.66667H8.8V7.5H14.4V18.3333H12.8V20H16V6.325L9.928 0ZM10.4 2.84167L13.272 5.83333H10.4V2.84167Z" fill="#1EBA4B"/>
</svg>
