<svg width="30" height="30" viewBox="0 0 30 30" fill="none" xmlns="http://www.w3.org/2000/svg">
<path d="M9.99977 13.7498C8.27356 13.7498 6.87484 12.351 6.87484 10.6247C6.87484 8.89843 8.27356 7.49966 9.99977 7.49966C11.726 7.49966 13.1247 8.89843 13.1247 10.6247C13.1247 12.351 11.726 13.7498 9.99977 13.7498ZM28.7493 13.7498C28.0581 13.7498 27.4994 14.3098 27.4994 14.9998V18.7498C27.4994 20.8174 25.8169 22.4999 23.7494 22.4999H6.24985C4.1824 22.4999 2.49994 20.8174 2.49994 18.7498V8.74968C2.49994 6.68214 4.1824 4.99962 6.24985 4.99962H13.7497C14.4397 4.99962 14.9996 4.43961 14.9996 3.7496C14.9996 3.05959 14.4397 2.49958 13.7497 2.49958H6.24985C2.80368 2.49958 0 5.30337 0 8.74968V18.7498C0 22.1961 2.80368 24.9999 6.24985 24.9999H13.7497V27.5H8.74979C8.05981 27.5 7.49982 28.0587 7.49982 28.75C7.49982 29.4412 8.05981 30 8.74979 30H21.2495C21.9407 30 22.4995 29.4412 22.4995 28.75C22.4995 28.0587 21.9407 27.5 21.2495 27.5H16.2496V24.9999H23.7494C27.1956 24.9999 29.9993 22.1961 29.9993 18.7498V14.9998C29.9993 14.3098 29.4406 13.7498 28.7493 13.7498ZM5.07863 18.3111C4.83614 18.9573 5.16363 19.6773 5.80986 19.9198C6.4586 20.1611 7.17733 19.8361 7.41983 19.1873C7.79857 18.1773 8.83479 17.4986 9.99852 17.4986C11.1622 17.4986 12.1997 18.1773 12.5772 19.1873C12.8184 19.8423 13.5572 20.1586 14.1872 19.9198C14.8334 19.6773 15.1609 18.9561 14.9184 18.3111C14.1759 16.3298 12.1985 14.9998 9.99726 14.9998C7.79607 14.9998 5.81861 16.3298 5.07613 18.3111H5.07863ZM29.9993 3.7496V7.49966C29.9993 9.56719 28.3168 11.2497 26.2494 11.2497H22.9407L20.282 13.3885C19.7045 13.791 19.0358 13.866 18.4321 13.5547C17.8608 13.2572 17.5046 12.6722 17.5021 12.0285V3.75085C17.4996 1.68332 19.182 0.00079208 21.2495 0.00079208H26.2481C28.2656 -0.0429586 30.0405 1.73207 29.9993 3.7496ZM27.4994 3.7496C27.5131 3.07709 26.9231 2.48583 26.2494 2.49958H21.2495C20.5595 2.50083 19.9995 3.06209 19.9995 3.75085V10.4072L21.7157 9.02468C21.9382 8.84593 22.2145 8.74843 22.4995 8.74843H26.2494C26.9394 8.74843 27.4994 8.18717 27.4994 7.49841V3.7496Z" fill="#1EBA4B"/>
</svg>
