<svg width="22" height="26" viewBox="0 0 22 26" fill="none" xmlns="http://www.w3.org/2000/svg">
<path d="M20.878 24.7003C20.9979 25.2864 20.614 25.8584 20.0189 25.9775C19.4381 26.0978 18.8408 25.7219 18.7209 25.1315C18.3073 23.1241 16.4945 21.6671 14.4089 21.6671H7.59C5.5055 21.6671 3.6916 23.1241 3.278 25.1315C3.157 25.7164 2.5828 26.0989 1.98 25.9775C1.3849 25.8584 0.9999 25.2864 1.1209 24.7003C1.7413 21.6866 4.4627 19.4994 7.59 19.4994H14.4089C17.5362 19.4994 20.2565 21.6866 20.878 24.7003ZM15.4 14.982C17.3437 14.6321 18.7011 12.7385 18.7 10.833V7.5831C18.7 5.19334 16.7266 3.2499 14.3 3.2499H7.7C5.2734 3.2499 3.3 5.19334 3.3 7.5831V10.833C3.3 12.6659 4.4781 14.3082 6.2337 14.9192C6.8079 15.1185 7.4349 14.8228 7.6373 14.2584C7.8397 13.694 7.5383 13.0754 6.9663 12.8761C6.0896 12.5706 5.5 11.7495 5.5 10.833V7.5831C5.5 6.38822 6.4867 5.4165 7.7 5.4165H14.3C15.5133 5.4165 16.5 6.38822 16.5 7.5831V10.833C16.5 11.7506 15.9104 12.5706 15.0337 12.8761C14.4606 13.0754 14.1603 13.694 14.3627 14.2584C14.5233 14.7036 14.9468 14.982 15.4 14.982ZM14.3 0H7.7C3.4551 0 0 3.40156 0 7.5831V10.833C0 11.431 0.4917 11.9163 1.1 11.9163C1.7083 11.9163 2.2 11.431 2.2 10.833V7.5831C2.2 4.59644 4.6673 2.1666 7.7 2.1666H14.3C17.3327 2.1666 19.8 4.59644 19.8 7.5831V10.833C19.8 13.8197 17.3327 16.2495 14.3 16.2495H13.2C13.2 15.0524 12.2155 14.0829 11 14.0829C9.7845 14.0829 8.8 15.0524 8.8 16.2495C8.8 17.4465 9.7845 18.4161 11 18.4161H14.3C18.5449 18.4161 22 15.0145 22 10.833V7.5831C22 3.40156 18.5449 0 14.3 0ZM6.6 9.20805C6.6 10.105 7.3392 10.833 8.25 10.833C9.1608 10.833 9.9 10.105 9.9 9.20805C9.9 8.31108 9.1608 7.5831 8.25 7.5831C7.3392 7.5831 6.6 8.31108 6.6 9.20805ZM15.4 9.20805C15.4 8.31108 14.6608 7.5831 13.75 7.5831C12.8392 7.5831 12.1 8.31108 12.1 9.20805C12.1 10.105 12.8392 10.833 13.75 10.833C14.6608 10.833 15.4 10.105 15.4 9.20805Z" fill="#505D3A"/>
</svg>
