<svg width="35" height="35" viewBox="0 0 35 35" fill="none" xmlns="http://www.w3.org/2000/svg">
<path d="M13.125 23.3321H15.4438C17.0042 23.3321 18.4625 22.7196 19.5708 21.6257L33.7167 7.4638C34.5479 6.63246 35 5.5386 35 4.37181C35 3.20502 34.5479 2.11116 33.7167 1.27982C32.0104 -0.426607 29.2396 -0.426607 27.5333 1.27982L13.3729 15.4417C12.2646 16.5502 11.6667 18.0086 11.6667 19.5692V21.8882C11.6667 22.6904 12.3229 23.3467 13.125 23.3467V23.3321ZM31.6604 3.33628C31.9375 3.6134 32.0833 3.97802 32.0833 4.37181C32.0833 4.7656 31.9375 5.13022 31.6604 5.40733L29.7792 7.28878L27.7229 5.23232L29.6042 3.35087C30.1729 2.78206 31.0917 2.78206 31.6604 3.35087V3.33628ZM14.5833 19.5546C14.5833 18.7816 14.8896 18.0378 15.4438 17.4982L25.6521 7.28878L27.7083 9.34524L17.5 19.5546C16.9458 20.1089 16.2167 20.4151 15.4438 20.4151H14.5833V19.5546ZM35 33.5415C35 34.3437 34.3438 35 33.5417 35C31.2958 35 30.2021 33.3665 29.4146 32.1559C28.6854 31.0621 28.3208 30.6245 27.7083 30.6245C26.9646 30.6245 26.3958 31.2663 25.5063 32.3018C24.4854 33.5123 23.2167 35 21.0875 35C18.9583 35 17.7042 33.4978 16.7125 32.2726C15.8667 31.2517 15.3125 30.6245 14.5833 30.6245C14.0146 30.6245 13.6646 30.9892 12.8917 31.9518C11.8417 33.2352 10.3979 35 7.29167 35C3.26667 35 0 31.733 0 27.7076C0 23.6822 3.26667 20.4151 7.29167 20.4151C8.09375 20.4151 8.75 21.0715 8.75 21.8736C8.75 22.6758 8.09375 23.3321 7.29167 23.3321C4.88542 23.3321 2.91667 25.3011 2.91667 27.7076C2.91667 30.1141 4.88542 32.083 7.29167 32.083C9.0125 32.083 9.72708 31.2079 10.6313 30.0995C11.5063 29.0348 12.5854 27.7076 14.5833 27.7076C16.7271 27.7076 17.9667 29.2098 18.9583 30.4349C19.8042 31.4559 20.3583 32.083 21.0875 32.083C21.8167 32.083 22.4 31.4413 23.2896 30.4058C24.3104 29.1952 25.5792 27.7076 27.7083 27.7076C29.8375 27.7076 31.0479 29.3411 31.8354 30.5516C32.5646 31.6455 32.9292 32.083 33.5417 32.083C34.3438 32.083 35 32.7393 35 33.5415Z" fill="#61B02E"/>
</svg>
