<svg width="22" height="18" viewBox="0 0 22 18" fill="none" xmlns="http://www.w3.org/2000/svg">
<path d="M4.58333 6.75C4.58333 5.5071 5.60908 4.5 6.875 4.5C8.14092 4.5 9.16667 5.5071 9.16667 6.75C9.16667 7.9929 8.14092 9 6.875 9C5.60908 9 4.58333 7.9929 4.58333 6.75ZM22 13.5V4.5C22 2.0187 19.9439 0 17.4167 0H4.58333C2.05608 0 0 2.0187 0 4.5V13.5C0 15.9813 2.05608 18 4.58333 18H17.4167C19.9439 18 22 15.9813 22 13.5ZM17.4167 1.8C18.9328 1.8 20.1667 3.0114 20.1667 4.5V13.5C20.1667 14.9886 18.9328 16.2 17.4167 16.2H4.58333C3.06717 16.2 1.83333 14.9886 1.83333 13.5V4.5C1.83333 3.0114 3.06717 1.8 4.58333 1.8H17.4167ZM18.3333 5.4C18.3333 4.9032 17.9236 4.5 17.4167 4.5H12.8333C12.3264 4.5 11.9167 4.9032 11.9167 5.4C11.9167 5.8968 12.3264 6.3 12.8333 6.3H17.4167C17.9236 6.3 18.3333 5.8968 18.3333 5.4ZM18.3333 9C18.3333 8.5032 17.9236 8.1 17.4167 8.1H12.8333C12.3264 8.1 11.9167 8.5032 11.9167 9C11.9167 9.4968 12.3264 9.9 12.8333 9.9H17.4167C17.9236 9.9 18.3333 9.4968 18.3333 9ZM16.5 12.6C16.5 12.1023 16.0903 11.7 15.5833 11.7H12.8333C12.3264 11.7 11.9167 12.1023 11.9167 12.6C11.9167 13.0977 12.3264 13.5 12.8333 13.5H15.5833C16.0903 13.5 16.5 13.0977 16.5 12.6ZM9.35275 13.4811C9.84867 13.3803 10.1677 12.9033 10.0641 12.4164C9.757 10.9584 8.415 9.8991 6.875 9.8991C5.335 9.8991 3.993 10.9584 3.68592 12.4164C3.58325 12.9033 3.90133 13.3794 4.39725 13.4811C4.89042 13.5774 5.37808 13.2687 5.48075 12.7827C5.61367 12.1554 6.19942 11.7 6.875 11.7C7.55058 11.7 8.13633 12.1554 8.26925 12.7827C8.36917 13.2723 8.86875 13.5828 9.35275 13.4811Z" fill="#61B02E"/>
</svg>
