<svg width="23" height="11" viewBox="0 0 23 11" fill="none" xmlns="http://www.w3.org/2000/svg">
<path d="M0.477678 10.5464C0.630386 10.6901 0.812065 10.8042 1.01224 10.8821C1.21241 10.9599 1.42712 11 1.64397 11C1.86082 11 2.07553 10.9599 2.27571 10.8821C2.47588 10.8042 2.65756 10.6901 2.81027 10.5464L10.3337 3.52299C10.4864 3.37926 10.6681 3.26517 10.8683 3.18732C11.0684 3.10947 11.2831 3.06938 11.5 3.06938C11.7169 3.06938 11.9316 3.10947 12.1317 3.18732C12.3319 3.26517 12.5136 3.37926 12.6663 3.52299L20.1897 10.5464C20.3424 10.6901 20.5241 10.8042 20.7243 10.8821C20.9245 10.9599 21.1392 11 21.356 11C21.5729 11 21.7876 10.9599 21.9878 10.8821C22.1879 10.8042 22.3696 10.6901 22.5223 10.5464C22.8283 10.2591 23 9.87041 23 9.46528C23 9.06015 22.8283 8.67149 22.5223 8.38417L14.9825 1.34543C14.0585 0.483908 12.8059 0 11.5 0C10.1941 0 8.94154 0.483908 8.01754 1.34543L0.477678 8.38417C0.171728 8.67149 -1.90735e-06 9.06015 -1.90735e-06 9.46528C-1.90735e-06 9.87041 0.171728 10.2591 0.477678 10.5464Z" fill="#BCBCBC"/>
</svg>
