<svg width="27" height="27" viewBox="0 0 27 27" fill="none" xmlns="http://www.w3.org/2000/svg">
<path d="M20.5883 1.02633L7.13352 14.4811C6.61963 14.9922 6.21223 15.6002 5.9349 16.2698C5.65758 16.9395 5.51583 17.6575 5.51788 18.3823V19.8644C5.51788 20.1571 5.63415 20.4378 5.84111 20.6447C6.04807 20.8517 6.32877 20.9679 6.62146 20.9679H8.10356C8.82835 20.97 9.54634 20.8282 10.216 20.5509C10.8856 20.2736 11.4936 19.8662 12.0047 19.3523L25.4595 5.89751C26.1044 5.251 26.4666 4.3751 26.4666 3.46192C26.4666 2.54874 26.1044 1.67283 25.4595 1.02633C24.8036 0.399377 23.9312 0.0494947 23.0239 0.0494947C22.1166 0.0494947 21.2442 0.399377 20.5883 1.02633ZM23.899 4.33705L10.4442 17.7918C9.82197 18.4103 8.98091 18.7585 8.10356 18.7608H7.72503V18.3823C7.72733 17.5049 8.07549 16.6639 8.69397 16.0416L22.1488 2.58678C22.3845 2.3616 22.6979 2.23595 23.0239 2.23595C23.3499 2.23595 23.6633 2.3616 23.899 2.58678C24.1307 2.8191 24.2608 3.13381 24.2608 3.46192C24.2608 3.79002 24.1307 4.10473 23.899 4.33705Z" fill="#6C6C6C"/>
<path d="M25.3823 9.90901C25.0896 9.90901 24.8089 10.0253 24.6019 10.2322C24.3949 10.4392 24.2787 10.7199 24.2787 11.0126V16.5536H19.8644C18.9863 16.5536 18.1442 16.9024 17.5233 17.5233C16.9025 18.1442 16.5536 18.9863 16.5536 19.8644V24.2787H5.51788C4.63982 24.2787 3.79772 23.9299 3.17684 23.309C2.55596 22.6881 2.20715 21.846 2.20715 20.9679V5.51788C2.20715 4.63982 2.55596 3.79772 3.17684 3.17684C3.79772 2.55596 4.63982 2.20715 5.51788 2.20715H15.4964C15.7891 2.20715 16.0698 2.09088 16.2768 1.88392C16.4837 1.67696 16.6 1.39626 16.6 1.10358C16.6 0.810889 16.4837 0.530191 16.2768 0.32323C16.0698 0.116269 15.7891 0 15.4964 0H5.51788C4.05499 0.00175232 2.65251 0.583661 1.61809 1.61809C0.583661 2.65251 0.00175232 4.05499 0 5.51788V20.9679C0.00175232 22.4308 0.583661 23.8333 1.61809 24.8677C2.65251 25.9022 4.05499 26.4841 5.51788 26.4858H18.0357C18.7607 26.4879 19.4789 26.3462 20.1487 26.0688C20.8185 25.7915 21.4267 25.3841 21.938 24.8702L24.8691 21.9369C25.3831 21.4258 25.7906 20.8178 26.0681 20.1482C26.3456 19.4786 26.4876 18.7606 26.4858 18.0357V11.0126C26.4858 10.7199 26.3696 10.4392 26.1626 10.2322C25.9556 10.0253 25.6749 9.90901 25.3823 9.90901ZM20.3775 23.3097C19.9339 23.7523 19.3729 24.0586 18.7608 24.1926V19.8644C18.7608 19.5717 18.8771 19.291 19.084 19.084C19.291 18.8771 19.5717 18.7608 19.8644 18.7608H24.1959C24.0594 19.3716 23.7534 19.9316 23.313 20.3764L20.3775 23.3097Z" fill="#6C6C6C"/>
</svg>
