<svg width="11" height="11" viewBox="0 0 11 11" fill="none" xmlns="http://www.w3.org/2000/svg">
<path d="M7.33318 7.10417C7.24701 7.10417 7.15946 7.07988 7.082 7.029L5.24859 5.8245C5.1198 5.73925 5.04188 5.59579 5.04188 5.44133V3.20833C5.04188 2.95487 5.24676 2.75 5.50023 2.75C5.7537 2.75 5.95858 2.95487 5.95858 3.20833V5.19429L7.58527 6.26267C7.79703 6.402 7.8557 6.68617 7.71682 6.89746C7.62882 7.03175 7.48214 7.10417 7.33318 7.10417ZM5.82749 10.0719C5.71932 10.0797 5.61023 10.0833 5.50023 10.0833C2.97287 10.0833 0.916705 8.02725 0.916705 5.5C0.916705 2.97275 2.97287 0.916667 5.50023 0.916667C6.9445 0.916667 8.30168 1.60967 9.16155 2.75H7.79199C7.53852 2.75 7.33364 2.95487 7.33364 3.20833C7.33364 3.46179 7.53852 3.66667 7.79199 3.66667H9.6254C10.131 3.66667 10.5421 3.25554 10.5421 2.75V0.916667C10.5421 0.663208 10.3372 0.458333 10.0838 0.458333C9.83028 0.458333 9.6254 0.663208 9.6254 0.916667V1.881C8.5909 0.707208 7.09209 0 5.50023 0C2.46731 0 0 2.46721 0 5.5C0 8.53279 2.46731 11 5.50023 11C5.63223 11 5.76287 10.995 5.89258 10.9858C6.14513 10.9679 6.33535 10.7484 6.31701 10.4963C6.29914 10.2442 6.08234 10.0494 5.82749 10.0719ZM10.5421 5.04167C10.2886 5.04167 10.0838 5.24654 10.0838 5.5C10.0838 5.70854 10.0695 5.91846 10.0416 6.12333C10.0077 6.3745 10.1837 6.6055 10.4339 6.63942C10.455 6.64217 10.4756 6.64354 10.4963 6.64354C10.7222 6.64354 10.9189 6.47671 10.95 6.24708C10.983 6.00142 11 5.74979 11 5.5C11 5.24654 10.7956 5.04167 10.5421 5.04167ZM10.1465 7.51483C9.9247 7.392 9.64557 7.4745 9.52456 7.69633C9.4251 7.87783 9.31189 8.05475 9.18767 8.2225C9.03733 8.426 9.08088 8.71292 9.28393 8.86371C9.36643 8.92421 9.46177 8.95308 9.55619 8.95308C9.6969 8.95308 9.83533 8.88846 9.92562 8.76746C10.0737 8.56625 10.2098 8.35404 10.329 8.13633C10.4509 7.9145 10.3693 7.63583 10.1475 7.51438L10.1465 7.51483ZM7.97808 9.35733C7.80253 9.47008 7.61919 9.57138 7.43218 9.658C7.20255 9.76479 7.10263 10.037 7.20942 10.2667C7.28734 10.434 7.45235 10.532 7.62561 10.532C7.69024 10.532 7.75578 10.5188 7.81812 10.4894C8.04317 10.3845 8.26409 10.2635 8.47448 10.1278C8.68761 9.99075 8.74903 9.7075 8.61198 9.49438C8.47494 9.28217 8.19122 9.22075 7.97854 9.35688L7.97808 9.35733Z" fill="#DF8A18"/>
</svg>
