<svg width="33" height="30" viewBox="0 0 33 30" fill="none" xmlns="http://www.w3.org/2000/svg">
<path d="M20.6222 18.9374C20.6222 19.6331 20.3445 20.4611 19.019 20.4611C18.645 20.4447 18.2751 20.3806 17.919 20.2715C16.9977 19.9836 15.9981 19.9836 15.0755 20.2715C13.5644 20.7666 12.3159 20.2796 12.3723 18.9374C12.375 16.9527 14.4169 15.0048 16.4972 15.0048C18.5776 15.0048 20.6195 16.9527 20.6195 18.9374H20.6222ZM21.4101 12.3039C20.7034 12.2207 20.0626 12.8836 19.9526 14.0827C19.7285 16.9131 22.1842 17.2828 22.5129 14.3855C22.6229 13.1878 22.1169 12.3885 21.4101 12.3039ZM11.4304 12.3039C10.7236 12.3871 10.2176 13.1865 10.3276 14.3855C10.6562 17.2828 13.1106 16.9117 12.8879 14.0827C12.7765 12.8836 12.1371 12.2207 11.4304 12.3039ZM15.9541 11.3341C15.8414 10.135 15.2034 9.47211 14.4952 9.55531C13.7857 9.63852 13.2839 10.4379 13.3952 11.6369C13.7239 14.5355 16.1796 14.1631 15.9541 11.3341ZM19.591 11.6369C19.701 10.4392 19.195 9.63989 18.4883 9.55531C17.7815 9.47211 17.1407 10.135 17.0308 11.3341C16.8066 14.1659 19.2624 14.5342 19.591 11.6369ZM33 9.26067C33 15.9242 25.3743 24.4973 20.2496 28.6346C19.1221 29.5444 17.7416 30 16.3625 30C14.9751 30 13.5877 29.5389 12.4589 28.6182C7.64225 24.6883 0 15.9583 0 9.26204C0 4.15496 4.17037 0 9.29775 0C12.1138 0 14.7262 1.2413 16.5 3.41427C18.2751 1.2413 20.8863 0 23.7023 0C28.8296 0 33 4.15359 33 9.26067ZM30.25 9.26067C30.25 5.65816 27.313 2.72678 23.7023 2.72678C21.67 2.72678 19.7876 3.64752 18.5364 5.25576C17.5532 6.52162 15.4467 6.52162 14.4622 5.25576C13.211 3.64889 11.3286 2.72814 9.29775 2.72814C5.68837 2.72814 2.75 5.65816 2.75 9.26204C2.75 14.7129 9.449 22.6313 14.2051 26.5121C15.4688 27.5433 17.2411 27.546 18.5144 26.5189C24.2041 21.9274 30.25 14.3173 30.25 9.26067Z" fill="#1EBA4B"/>
</svg>
