<svg width="35" height="37" viewBox="0 0 35 37" fill="none" xmlns="http://www.w3.org/2000/svg">
<path d="M22.8257 35.4583C22.8257 36.3093 22.1455 37 21.304 37H7.60856C3.4132 37 0 33.542 0 29.2917V7.70833C0 3.45796 3.4132 0 7.60856 0H14.4791C17.3232 0 19.9983 1.12233 22.0116 3.16042L27.3132 8.53467C27.7256 8.95246 28.1091 9.41033 28.4514 9.89596C28.9399 10.5882 28.7817 11.5517 28.0984 12.0466C27.4152 12.5399 26.4626 12.3811 25.9756 11.6874C25.7306 11.3405 25.4567 11.0121 25.163 10.7161L19.8599 5.34188C19.376 4.85162 18.8388 4.43692 18.2605 4.10083V10.7917C18.2605 11.6411 18.9423 12.3333 19.7822 12.3333H24.3474C25.1889 12.3333 25.8691 13.024 25.8691 13.875C25.8691 14.726 25.1889 15.4167 24.3474 15.4167H19.7822C17.2653 15.4167 15.2171 13.3416 15.2171 10.7917V3.11879C14.9736 3.09567 14.7271 3.08333 14.4791 3.08333H7.60856C5.09165 3.08333 3.04342 5.15842 3.04342 7.70833V29.2917C3.04342 31.8416 5.09165 33.9167 7.60856 33.9167H21.304C22.1455 33.9167 22.8257 34.6073 22.8257 35.4583ZM31.4766 25.0783L26.8491 24.2967C26.2815 24.2011 25.8691 23.7078 25.8691 23.125C25.8691 22.2755 26.5508 21.5833 27.3908 21.5833H30.842C31.3838 21.5833 31.889 21.8793 32.1614 22.3542C32.5798 23.0911 33.5081 23.3424 34.24 22.9169C34.9674 22.4898 35.217 21.5479 34.7939 20.811C33.9813 19.3849 32.4657 18.4985 30.8405 18.4985H30.4327V16.9568C30.4327 16.1058 29.7525 15.4151 28.911 15.4151C28.0695 15.4151 27.3893 16.1058 27.3893 16.9568V18.4985C24.8724 18.4985 22.8242 20.5735 22.8242 23.1235C22.8242 25.2201 24.3063 26.993 26.3469 27.3368L30.9744 28.1185C31.542 28.214 31.9544 28.7074 31.9544 29.2901C31.9544 30.1396 31.2727 30.8318 30.4327 30.8318H26.9815C26.4397 30.8318 25.9345 30.5358 25.6621 30.061C25.2437 29.3225 24.3139 29.0712 23.5835 29.4983C22.8561 29.9253 22.6065 30.8673 23.0296 31.6042C23.8422 33.0302 25.3578 33.9151 26.983 33.9151H27.3908V35.4568C27.3908 36.3078 28.071 36.9985 28.9125 36.9985C29.754 36.9985 30.4342 36.3078 30.4342 35.4568V33.9151C32.9511 33.9151 34.9994 31.84 34.9994 29.2901C34.9994 27.1935 33.5172 25.4221 31.4766 25.0783ZM9.89112 23.125H18.2605C19.102 23.125 19.7822 22.4343 19.7822 21.5833C19.7822 20.7323 19.102 20.0417 18.2605 20.0417H9.89112C7.79421 20.0417 6.08685 21.7714 6.08685 23.8958V26.9792C6.08685 29.1036 7.79421 30.8333 9.89112 30.8333H18.2605C19.102 30.8333 19.7822 30.1427 19.7822 29.2917C19.7822 28.4407 19.102 27.75 18.2605 27.75H9.89112C9.47113 27.75 9.13027 27.4047 9.13027 26.9792V23.8958C9.13027 23.4703 9.47113 23.125 9.89112 23.125ZM7.60856 16.9583H10.652C11.492 16.9583 12.1737 16.2677 12.1737 15.4167C12.1737 14.5657 11.492 13.875 10.652 13.875H7.60856C6.76857 13.875 6.08685 14.5657 6.08685 15.4167C6.08685 16.2677 6.76857 16.9583 7.60856 16.9583ZM7.60856 10.7917H10.652C11.492 10.7917 12.1737 10.101 12.1737 9.25C12.1737 8.399 11.492 7.70833 10.652 7.70833H7.60856C6.76857 7.70833 6.08685 8.399 6.08685 9.25C6.08685 10.101 6.76857 10.7917 7.60856 10.7917Z" fill="#61B12E"/>
</svg>
