<svg width="20" height="20" viewBox="0 0 20 20" fill="none" xmlns="http://www.w3.org/2000/svg">
<path d="M0.833333 3.95844H3.11333C3.2922 4.61653 3.68264 5.19748 4.22444 5.61167C4.76623 6.02585 5.42927 6.25026 6.11125 6.25026C6.79323 6.25026 7.45627 6.02585 7.99806 5.61167C8.53986 5.19748 8.9303 4.61653 9.10917 3.95844H19.1667C19.3877 3.95844 19.5996 3.87064 19.7559 3.71437C19.9122 3.55809 20 3.34614 20 3.12513C20 2.90412 19.9122 2.69217 19.7559 2.53589C19.5996 2.37961 19.3877 2.29182 19.1667 2.29182H9.10917C8.9303 1.63373 8.53986 1.05277 7.99806 0.638589C7.45627 0.224403 6.79323 0 6.11125 0C5.42927 0 4.76623 0.224403 4.22444 0.638589C3.68264 1.05277 3.2922 1.63373 3.11333 2.29182H0.833333C0.61232 2.29182 0.400358 2.37961 0.244078 2.53589C0.0877974 2.69217 0 2.90412 0 3.12513C0 3.34614 0.0877974 3.55809 0.244078 3.71437C0.400358 3.87064 0.61232 3.95844 0.833333 3.95844ZM6.11083 1.66684C6.39926 1.66684 6.68122 1.75236 6.92104 1.9126C7.16086 2.07284 7.34778 2.3006 7.45816 2.56706C7.56854 2.83353 7.59741 3.12675 7.54114 3.40963C7.48487 3.69251 7.34598 3.95235 7.14203 4.1563C6.93808 4.36024 6.67823 4.49913 6.39534 4.5554C6.11245 4.61167 5.81923 4.58279 5.55275 4.47242C5.28628 4.36204 5.05852 4.17513 4.89827 3.93531C4.73803 3.6955 4.6525 3.41355 4.6525 3.12513C4.65294 2.7385 4.80673 2.36783 5.08012 2.09445C5.35352 1.82106 5.7242 1.66728 6.11083 1.66684Z" fill="#1EBA4B"/>
<path d="M19.1667 9.16675H16.8867C16.7081 8.50851 16.3178 7.92735 15.7761 7.51299C15.2343 7.09863 14.5712 6.87412 13.8892 6.87412C13.2071 6.87412 12.544 7.09863 12.0023 7.51299C11.4605 7.92735 11.0702 8.50851 10.8917 9.16675H0.833333C0.61232 9.16675 0.400358 9.25455 0.244078 9.41082C0.0877976 9.5671 1.74703e-07 9.77906 1.74703e-07 10.0001C1.74703e-07 10.2211 0.0877976 10.433 0.244078 10.5893C0.400358 10.7456 0.61232 10.8334 0.833333 10.8334H10.8917C11.0702 11.4916 11.4605 12.0728 12.0023 12.4871C12.544 12.9015 13.2071 13.126 13.8892 13.126C14.5712 13.126 15.2343 12.9015 15.7761 12.4871C16.3178 12.0728 16.7081 11.4916 16.8867 10.8334H19.1667C19.3877 10.8334 19.5996 10.7456 19.7559 10.5893C19.9122 10.433 20 10.2211 20 10.0001C20 9.77906 19.9122 9.5671 19.7559 9.41082C19.5996 9.25455 19.3877 9.16675 19.1667 9.16675ZM13.8892 11.4584C13.6007 11.4584 13.3188 11.3728 13.079 11.2126C12.8391 11.0524 12.6522 10.8246 12.5418 10.5581C12.4315 10.2917 12.4026 9.99845 12.4589 9.71556C12.5151 9.43268 12.654 9.17284 12.858 8.96889C13.0619 8.76495 13.3218 8.62606 13.6047 8.56979C13.8875 8.51352 14.1808 8.5424 14.4472 8.65278C14.7137 8.76315 14.9415 8.95006 15.1017 9.18988C15.262 9.42969 15.3475 9.71164 15.3475 10.0001C15.3471 10.3867 15.1933 10.7574 14.9199 11.0307C14.6465 11.3041 14.2758 11.4579 13.8892 11.4584Z" fill="#1EBA4B"/>
<path d="M19.1667 16.0416H9.10917C8.9303 15.3835 8.53986 14.8025 7.99806 14.3883C7.45627 13.9741 6.79323 13.7497 6.11125 13.7497C5.42927 13.7497 4.76623 13.9741 4.22444 14.3883C3.68264 14.8025 3.2922 15.3835 3.11333 16.0416H0.833333C0.61232 16.0416 0.400358 16.1294 0.244078 16.2856C0.0877976 16.4419 1.74703e-07 16.6539 1.74703e-07 16.8749C1.74703e-07 17.0959 0.0877976 17.3078 0.244078 17.4641C0.400358 17.6204 0.61232 17.7082 0.833333 17.7082H3.11333C3.2922 18.3663 3.68264 18.9472 4.22444 19.3614C4.76623 19.7756 5.42927 20 6.11125 20C6.79323 20 7.45627 19.7756 7.99806 19.3614C8.53986 18.9472 8.9303 18.3663 9.10917 17.7082H19.1667C19.3877 17.7082 19.5996 17.6204 19.7559 17.4641C19.9122 17.3078 20 17.0959 20 16.8749C20 16.6539 19.9122 16.4419 19.7559 16.2856C19.5996 16.1294 19.3877 16.0416 19.1667 16.0416ZM6.11083 18.3332C5.8224 18.3332 5.54045 18.2476 5.30063 18.0874C5.0608 17.9272 4.87389 17.6994 4.76351 17.4329C4.65313 17.1665 4.62425 16.8733 4.68052 16.5904C4.73679 16.3075 4.87568 16.0476 5.07964 15.8437C5.28359 15.6398 5.54344 15.5009 5.82633 15.4446C6.10922 15.3883 6.40244 15.4172 6.66891 15.5276C6.93539 15.638 7.16315 15.8249 7.32339 16.0647C7.48364 16.3045 7.56917 16.5864 7.56917 16.8749C7.56851 17.2614 7.41465 17.632 7.1413 17.9053C6.86795 18.1786 6.4974 18.3325 6.11083 18.3332Z" fill="#1EBA4B"/>
</svg>
