<svg width="31" height="38" viewBox="0 0 31 38" fill="none" xmlns="http://www.w3.org/2000/svg">
<path d="M6.52629 19H14.6842V22.1667H6.52629V19ZM22.842 12.6667H6.52629V15.8333H22.842V12.6667ZM22.842 6.33333H6.52629V9.5H22.842V6.33333ZM27.7368 30.7863V38L24.4736 34.8333L21.2105 38V30.7863C19.9661 30.0925 18.9931 29.0189 18.443 27.7327C17.8929 26.4464 17.7965 25.0197 18.1689 23.6747C18.5412 22.3298 19.3614 21.1421 20.5018 20.2966C21.6421 19.451 23.0385 18.9952 24.4736 19C25.0252 19.0067 25.5735 19.0823 26.1052 19.2248V4.75C26.1052 4.33007 25.9333 3.92735 25.6273 3.63041C25.3213 3.33348 24.9063 3.16667 24.4736 3.16667H4.89472C4.462 3.16667 4.047 3.33348 3.74102 3.63041C3.43505 3.92735 3.26315 4.33007 3.26315 4.75V31.6667H17.9473V34.8333H0V4.75C0 3.49022 0.515692 2.28204 1.43363 1.39124C2.35157 0.500445 3.59656 0 4.89472 0H24.4736C25.7718 0 27.0168 0.500445 27.9347 1.39124C28.8526 2.28204 29.3683 3.49022 29.3683 4.75V21.1882C30.0074 21.8847 30.478 22.7111 30.7454 23.6068C31.0129 24.5026 31.0705 25.4451 30.9141 26.3653C30.7576 27.2855 30.3911 28.1601 29.8414 28.925C29.2916 29.69 28.5725 30.3259 27.7368 30.7863ZM27.7368 25.3333C27.7368 24.707 27.5454 24.0948 27.1868 23.574C26.8283 23.0533 26.3186 22.6474 25.7224 22.4077C25.1261 22.168 24.47 22.1053 23.837 22.2275C23.204 22.3497 22.6226 22.6513 22.1662 23.0942C21.7099 23.537 21.3991 24.1013 21.2732 24.7155C21.1472 25.3298 21.2119 25.9665 21.4589 26.5452C21.7058 27.1238 22.1241 27.6184 22.6607 27.9663C23.1973 28.3143 23.8282 28.5 24.4736 28.5C25.339 28.5 26.169 28.1664 26.781 27.5725C27.393 26.9786 27.7368 26.1732 27.7368 25.3333Z" fill="#61B02E"/>
</svg>
