<svg width="31" height="30" viewBox="0 0 31 30" fill="none" xmlns="http://www.w3.org/2000/svg">
<path d="M30.7826 11.1109C30.5184 10.2701 29.9904 9.53659 29.2769 9.01892C28.5633 8.50124 27.702 8.22684 26.8204 8.23631H21.1761L19.4617 2.89524C19.1921 2.05452 18.6624 1.3211 17.9489 0.800744C17.2353 0.280392 16.3749 0 15.4917 0C14.6085 0 13.7481 0.280392 13.0345 0.800744C12.321 1.3211 11.7913 2.05452 11.5217 2.89524L9.80734 8.23631H4.16303C3.2842 8.23756 2.42825 8.51639 1.71743 9.03296C1.00661 9.54953 0.477286 10.2774 0.205057 11.1127C-0.0671712 11.9479 -0.0683761 12.8478 0.201615 13.6838C0.471605 14.5197 0.998981 15.249 1.70841 15.7675L6.30241 19.1251L4.55576 24.532C4.2735 25.3706 4.26992 26.2779 4.54557 27.1187C4.82122 27.9595 5.36132 28.6887 6.08537 29.1977C6.79702 29.723 7.65942 30.0044 8.54406 29.9999C9.4287 29.9955 10.2882 29.7055 10.9946 29.1731L15.4917 25.8647L19.9901 29.1693C20.7005 29.6915 21.5582 29.9752 22.44 29.9795C23.3218 29.9838 24.1823 29.7085 24.8977 29.1932C25.6131 28.6778 26.1467 27.949 26.4216 27.1114C26.6965 26.2739 26.6986 25.3708 26.4276 24.532L24.681 19.1251L29.2802 15.7675C29.9977 15.2556 30.5313 14.5263 30.8019 13.6876C31.0725 12.8489 31.0657 11.9454 30.7826 11.1109ZM27.7557 13.682L22.4021 17.5935C22.1822 17.7538 22.0186 17.9795 21.9346 18.2383C21.8506 18.4971 21.8505 18.7758 21.9344 19.0347L23.9692 25.3236C24.0721 25.6426 24.0712 25.9859 23.9666 26.3044C23.8621 26.6228 23.6591 26.8999 23.3871 27.0958C23.115 27.2917 22.7878 27.3963 22.4525 27.3946C22.1172 27.3929 21.7911 27.285 21.521 27.0863L16.2565 23.2122C16.0348 23.0494 15.7668 22.9616 15.4917 22.9616C15.2166 22.9616 14.9486 23.0494 14.7269 23.2122L9.4624 27.0863C9.1925 27.2876 8.86546 27.3978 8.5287 27.4009C8.19194 27.4039 7.86295 27.2997 7.58944 27.1033C7.31593 26.9069 7.11211 26.6285 7.00753 26.3085C6.90295 25.9885 6.90304 25.6435 7.00779 25.3236L9.04899 19.0347C9.13286 18.7758 9.1328 18.4971 9.04882 18.2383C8.96483 17.9795 8.80122 17.7538 8.58133 17.5935L3.22769 13.682C2.95807 13.4846 2.75774 13.2072 2.6553 12.8893C2.55286 12.5713 2.55356 12.2292 2.6573 11.9116C2.76103 11.5941 2.96249 11.3175 3.23291 11.1213C3.50333 10.925 3.82887 10.8193 4.16303 10.819H10.7517C11.0252 10.819 11.2917 10.7322 11.5127 10.5712C11.7337 10.4101 11.8979 10.1831 11.9816 9.92282L13.9841 3.68427C14.0868 3.36502 14.2883 3.08661 14.5595 2.88911C14.8306 2.69161 15.1575 2.5852 15.493 2.5852C15.8285 2.5852 16.1554 2.69161 16.4265 2.88911C16.6977 3.08661 16.8991 3.36502 17.0019 3.68427L19.0044 9.92282C19.0881 10.1831 19.2523 10.4101 19.4733 10.5712C19.6943 10.7322 19.9608 10.819 20.2343 10.819H26.823C27.1571 10.8193 27.4827 10.925 27.7531 11.1213C28.0235 11.3175 28.225 11.5941 28.3287 11.9116C28.4324 12.2292 28.4331 12.5713 28.3307 12.8893C28.2283 13.2072 28.0279 13.4846 27.7583 13.682H27.7557Z" fill="#1EBA4B"/>
</svg>
