<svg width="16" height="20" viewBox="0 0 16 20" fill="none" xmlns="http://www.w3.org/2000/svg">
<path d="M13.6 7.02V5.83333C13.6 4.28624 13.01 2.80251 11.9598 1.70854C10.9096 0.614582 9.48521 0 8 0C6.51479 0 5.09041 0.614582 4.0402 1.70854C2.99 2.80251 2.4 4.28624 2.4 5.83333V7.02C1.68749 7.34392 1.08103 7.8771 0.654799 8.55434C0.228564 9.23158 0.0010227 10.0235 0 10.8333V15.8333C0.00127029 16.938 0.423106 17.997 1.17298 18.7782C1.92285 19.5593 2.93952 19.9987 4 20H12C13.0605 19.9987 14.0772 19.5593 14.827 18.7782C15.5769 17.997 15.9987 16.938 16 15.8333V10.8333C15.999 10.0235 15.7714 9.23158 15.3452 8.55434C14.919 7.8771 14.3125 7.34392 13.6 7.02ZM4 5.83333C4 4.72826 4.42143 3.66846 5.17157 2.88706C5.92172 2.10565 6.93913 1.66667 8 1.66667C9.06087 1.66667 10.0783 2.10565 10.8284 2.88706C11.5786 3.66846 12 4.72826 12 5.83333V6.66667H4V5.83333ZM14.4 15.8333C14.4 16.4964 14.1471 17.1323 13.6971 17.6011C13.247 18.0699 12.6365 18.3333 12 18.3333H4C3.36348 18.3333 2.75303 18.0699 2.30294 17.6011C1.85286 17.1323 1.6 16.4964 1.6 15.8333V10.8333C1.6 10.1703 1.85286 9.53441 2.30294 9.06557C2.75303 8.59673 3.36348 8.33333 4 8.33333H12C12.6365 8.33333 13.247 8.59673 13.6971 9.06557C14.1471 9.53441 14.4 10.1703 14.4 10.8333V15.8333Z" fill="#50A916"/>
<path d="M8 11.6667C7.78783 11.6667 7.58434 11.7545 7.43431 11.9107C7.28429 12.067 7.2 12.279 7.2 12.5V14.1667C7.2 14.3877 7.28429 14.5996 7.43431 14.7559C7.58434 14.9122 7.78783 15 8 15C8.21217 15 8.41566 14.9122 8.56569 14.7559C8.71571 14.5996 8.8 14.3877 8.8 14.1667V12.5C8.8 12.279 8.71571 12.067 8.56569 11.9107C8.41566 11.7545 8.21217 11.6667 8 11.6667Z" fill="#50A916"/>
</svg>
