<svg width="13" height="16" viewBox="0 0 13 16" fill="none" xmlns="http://www.w3.org/2000/svg">
<path d="M11.6675 3.69333L9.399 1.36667C8.541 0.486667 7.397 0 6.1815 0H3.25C1.456 0 0 1.49333 0 3.33333V12.6667C0 14.5067 1.456 16 3.25 16H9.75C11.544 16 13 14.5067 13 12.6667V6.99333C13 5.74667 12.5255 4.57333 11.6675 3.69333ZM10.751 4.63333C10.959 4.84667 11.1345 5.08 11.2775 5.33333H8.4565C8.099 5.33333 7.8065 5.03333 7.8065 4.66667V1.77333C8.0535 1.92 8.281 2.1 8.489 2.31333L10.7575 4.64L10.751 4.63333ZM11.7 12.6667C11.7 13.7667 10.8225 14.6667 9.75 14.6667H3.25C2.1775 14.6667 1.3 13.7667 1.3 12.6667V3.33333C1.3 2.23333 2.1775 1.33333 3.25 1.33333H6.1815C6.2855 1.33333 6.396 1.33333 6.5 1.34667V4.66667C6.5 5.76667 7.3775 6.66667 8.45 6.66667H11.687C11.7 6.77333 11.7 6.88 11.7 6.99333V12.6667ZM3.3085 8.66667H2.6C2.2425 8.66667 1.95 8.96667 1.95 9.33333V12.2933C1.95 12.5267 2.132 12.7067 2.353 12.7067C2.574 12.7067 2.756 12.52 2.756 12.2933V11.48H3.302C4.069 11.48 4.693 10.8467 4.693 10.0733C4.693 9.3 4.069 8.66667 3.302 8.66667H3.3085ZM2.769 10.6467V9.5H3.315C3.627 9.5 3.8935 9.76 3.8935 10.0733C3.8935 10.3867 3.627 10.6467 3.315 10.6467H2.769ZM11.063 9.08667C11.063 9.32 10.881 9.5 10.66 9.5H9.5615V10.26H10.3675C10.595 10.26 10.7705 10.4467 10.7705 10.6733C10.7705 10.9 10.5885 11.0867 10.3675 11.0867H9.5615V12.2867C9.5615 12.52 9.3795 12.7 9.1585 12.7C8.9375 12.7 8.7555 12.5133 8.7555 12.2867V9.08C8.7555 8.84667 8.9375 8.66667 9.1585 8.66667H10.66C10.8875 8.66667 11.063 8.85333 11.063 9.08V9.08667ZM6.5585 8.67333H5.85C5.4925 8.67333 5.2 8.97333 5.2 9.34V12.3C5.2 12.5333 5.382 12.6733 5.603 12.6733C5.824 12.6733 6.552 12.6733 6.552 12.6733C7.319 12.6733 7.943 12.04 7.943 11.2667V10.08C7.943 9.30667 7.319 8.67333 6.552 8.67333H6.5585ZM7.137 11.2667C7.137 11.58 6.8705 11.84 6.5585 11.84H6.019V9.50667H6.565C6.877 9.50667 7.1435 9.76667 7.1435 10.08V11.2667H7.137Z" fill="white"/>
</svg>
