<svg width="13" height="13" viewBox="0 0 13 13" fill="none" xmlns="http://www.w3.org/2000/svg">
<path d="M6.5 0C5.21442 0 3.95772 0.381218 2.8888 1.09545C1.81988 1.80968 0.986755 2.82484 0.494786 4.01256C0.00281637 5.20028 -0.125905 6.50721 0.124899 7.76809C0.375702 9.02896 0.994767 10.1872 1.90381 11.0962C2.81285 12.0052 3.97104 12.6243 5.23191 12.8751C6.49279 13.1259 7.79972 12.9972 8.98744 12.5052C10.1752 12.0132 11.1903 11.1801 11.9046 10.1112C12.6188 9.04228 13 7.78558 13 6.5C12.9981 4.77666 12.3127 3.12445 11.0941 1.90586C9.87556 0.687282 8.22334 0.00186392 6.5 0ZM6.5 11.9167C5.42869 11.9167 4.38143 11.599 3.49066 11.0038C2.5999 10.4086 1.90563 9.56263 1.49566 8.57287C1.08568 7.5831 0.978413 6.49399 1.18742 5.44326C1.39642 4.39253 1.91231 3.42737 2.66984 2.66984C3.42737 1.9123 4.39253 1.39642 5.44326 1.18741C6.49399 0.97841 7.5831 1.08568 8.57287 1.49565C9.56264 1.90563 10.4086 2.59989 11.0038 3.49066C11.599 4.38143 11.9167 5.42868 11.9167 6.5C11.9151 7.9361 11.3439 9.31294 10.3284 10.3284C9.31294 11.3439 7.93611 11.9151 6.5 11.9167Z" fill="#D20036"/>
<path d="M6.5 5.41666H5.95833C5.81467 5.41666 5.6769 5.47373 5.57532 5.57531C5.47373 5.6769 5.41667 5.81467 5.41667 5.95833C5.41667 6.10199 5.47373 6.23976 5.57532 6.34135C5.6769 6.44293 5.81467 6.5 5.95833 6.5H6.5V9.75C6.5 9.89366 6.55707 10.0314 6.65865 10.133C6.76023 10.2346 6.89801 10.2917 7.04167 10.2917C7.18532 10.2917 7.3231 10.2346 7.42468 10.133C7.52626 10.0314 7.58333 9.89366 7.58333 9.75V6.5C7.58333 6.21268 7.4692 5.93713 7.26603 5.73397C7.06287 5.5308 6.78732 5.41666 6.5 5.41666Z" fill="#D20036"/>
<path d="M6.5 4.33333C6.94873 4.33333 7.3125 3.96956 7.3125 3.52083C7.3125 3.0721 6.94873 2.70833 6.5 2.70833C6.05127 2.70833 5.6875 3.0721 5.6875 3.52083C5.6875 3.96956 6.05127 4.33333 6.5 4.33333Z" fill="#D20036"/>
</svg>
