<svg width="15" height="15" viewBox="0 0 15 15" fill="none" xmlns="http://www.w3.org/2000/svg">
<path d="M7.52063 11.8819C7.80791 11.8824 8.09246 11.8261 8.35792 11.7162C8.62339 11.6064 8.86453 11.4452 9.0675 11.2419L11.5169 8.7925L10.1912 7.46687L8.4525 9.20563L8.4375 0H6.5625L6.5775 9.19312L4.85 7.46687L3.52437 8.7925L5.97375 11.2419C6.17668 11.4452 6.41781 11.6065 6.68329 11.7163C6.94876 11.8262 7.23333 11.8824 7.52063 11.8819Z" fill="#1EBA4B"/>
<path d="M13.125 10V13.125H1.875V10H0V13.125C0 13.6223 0.197544 14.0992 0.549175 14.4508C0.900806 14.8025 1.37772 15 1.875 15H13.125C13.6223 15 14.0992 14.8025 14.4508 14.4508C14.8025 14.0992 15 13.6223 15 13.125V10H13.125Z" fill="#1EBA4B"/>
</svg>
