<svg width="17" height="17" viewBox="0 0 17 17" fill="none" xmlns="http://www.w3.org/2000/svg">
<path d="M6.375 11.3327H7.50125C8.25917 11.3327 8.9675 11.0352 9.50583 10.5039L16.3767 3.62527C16.7804 3.22148 17 2.69018 17 2.12345C17 1.55672 16.7804 1.02542 16.3767 0.621627C15.5479 -0.207209 14.2021 -0.207209 13.3733 0.621627L6.49542 7.50026C5.95708 8.03865 5.66667 8.74706 5.66667 9.50505V10.6314C5.66667 11.021 5.98542 11.3398 6.375 11.3398V11.3327ZM15.3779 1.62048C15.5125 1.75508 15.5833 1.93218 15.5833 2.12345C15.5833 2.31472 15.5125 2.49182 15.3779 2.62642L14.4642 3.54026L13.4654 2.54141L14.3792 1.62757C14.6554 1.35129 15.1017 1.35129 15.3779 1.62757V1.62048ZM7.08333 9.49797C7.08333 9.12251 7.23208 8.76122 7.50125 8.49911L12.4596 3.54026L13.4583 4.53912L8.5 9.49797C8.23083 9.76716 7.87667 9.91593 7.50125 9.91593H7.08333V9.49797ZM17 16.2916C17 16.6812 16.6813 17 16.2917 17C15.2008 17 14.6696 16.2066 14.2871 15.6186C13.9329 15.0873 13.7558 14.8748 13.4583 14.8748C13.0971 14.8748 12.8208 15.1865 12.3888 15.6894C11.8929 16.2774 11.2767 17 10.2425 17C9.20833 17 8.59917 16.2703 8.1175 15.6753C7.70667 15.1794 7.4375 14.8748 7.08333 14.8748C6.80708 14.8748 6.63708 15.0519 6.26167 15.5194C5.75167 16.1428 5.05042 17 3.54167 17C1.58667 17 0 15.4132 0 13.458C0 11.5028 1.58667 9.91593 3.54167 9.91593C3.93125 9.91593 4.25 10.2347 4.25 10.6243C4.25 11.014 3.93125 11.3327 3.54167 11.3327C2.37292 11.3327 1.41667 12.2891 1.41667 13.458C1.41667 14.6268 2.37292 15.5832 3.54167 15.5832C4.3775 15.5832 4.72458 15.1581 5.16375 14.6198C5.58875 14.1026 6.11292 13.458 7.08333 13.458C8.12458 13.458 8.72667 14.1876 9.20833 14.7827C9.61917 15.2786 9.88833 15.5832 10.2425 15.5832C10.5967 15.5832 10.88 15.2715 11.3121 14.7685C11.8079 14.1805 12.4242 13.458 13.4583 13.458C14.4925 13.458 15.0804 14.2514 15.4629 14.8394C15.8171 15.3707 15.9942 15.5832 16.2917 15.5832C16.6813 15.5832 17 15.902 17 16.2916Z" fill="white"/>
</svg>
