<svg width="16" height="21" viewBox="0 0 16 21" fill="none" xmlns="http://www.w3.org/2000/svg">
<path d="M8 10.5C9.05483 10.5 10.086 10.1921 10.963 9.61522C11.8401 9.03834 12.5237 8.2184 12.9274 7.25909C13.331 6.29978 13.4366 5.24418 13.2309 4.22578C13.0251 3.20738 12.5171 2.27192 11.7712 1.53769C11.0254 0.803466 10.075 0.303452 9.04048 0.10088C8.00592 -0.101693 6.93356 0.00227476 5.95902 0.399635C4.98448 0.796995 4.15153 1.4699 3.5655 2.33326C2.97946 3.19662 2.66667 4.21165 2.66667 5.25C2.66808 6.64196 3.23044 7.97651 4.23032 8.96078C5.23021 9.94504 6.58595 10.4986 8 10.5ZM8 1.75C8.70322 1.75 9.39065 1.95527 9.97536 2.33986C10.5601 2.72444 11.0158 3.27107 11.2849 3.91061C11.554 4.55015 11.6244 5.25388 11.4872 5.93282C11.35 6.61175 11.0114 7.23539 10.5142 7.72488C10.0169 8.21436 9.38337 8.5477 8.69366 8.68275C8.00395 8.8178 7.28904 8.74849 6.63935 8.48358C5.98966 8.21867 5.43435 7.77007 5.04366 7.1945C4.65298 6.61893 4.44444 5.94224 4.44444 5.25C4.44444 4.32174 4.81905 3.43151 5.48584 2.77513C6.15264 2.11875 7.05701 1.75 8 1.75Z" fill="#4AA212"/>
<path d="M8 12.25C5.87899 12.2523 3.84553 13.0827 2.34574 14.5591C0.845963 16.0354 0.00235276 18.0371 0 20.125C0 20.3571 0.0936505 20.5796 0.26035 20.7437C0.427049 20.9078 0.653141 21 0.888889 21C1.12464 21 1.35073 20.9078 1.51743 20.7437C1.68413 20.5796 1.77778 20.3571 1.77778 20.125C1.77778 18.5005 2.43333 16.9426 3.60022 15.794C4.76712 14.6453 6.34976 14 8 14C9.65024 14 11.2329 14.6453 12.3998 15.794C13.5667 16.9426 14.2222 18.5005 14.2222 20.125C14.2222 20.3571 14.3159 20.5796 14.4826 20.7437C14.6493 20.9078 14.8754 21 15.1111 21C15.3469 21 15.573 20.9078 15.7397 20.7437C15.9064 20.5796 16 20.3571 16 20.125C15.9976 18.0371 15.154 16.0354 13.6543 14.5591C12.1545 13.0827 10.121 12.2523 8 12.25Z" fill="#4AA212"/>
</svg>
