<svg width="24" height="26" viewBox="0 0 24 26" fill="none" xmlns="http://www.w3.org/2000/svg">
<path d="M15.6519 24.9167C15.6519 25.5147 15.1855 26 14.6084 26H5.2173C2.34048 26 0 23.5701 0 20.5833V5.41667C0 2.42992 2.34048 0 5.2173 0H9.92852C11.8787 0 13.7131 0.788667 15.0936 2.22083L18.729 5.99733C19.0118 6.29092 19.2748 6.61267 19.5096 6.95392C19.8445 7.44033 19.736 8.11742 19.2675 8.46517C18.799 8.81183 18.1458 8.70025 17.8118 8.21275C17.6439 7.969 17.456 7.73825 17.2546 7.53025L13.6182 3.75375C13.2864 3.40925 12.918 3.11783 12.5215 2.88167V7.58333C12.5215 8.18025 12.989 8.66667 13.565 8.66667H16.6953C17.2724 8.66667 17.7388 9.152 17.7388 9.75C17.7388 10.348 17.2724 10.8333 16.6953 10.8333H13.565C11.8391 10.8333 10.4346 9.37517 10.4346 7.58333V2.19158C10.2676 2.17533 10.0986 2.16667 9.92852 2.16667H5.2173C3.49141 2.16667 2.08692 3.62483 2.08692 5.41667V20.5833C2.08692 22.3752 3.49141 23.8333 5.2173 23.8333H14.6084C15.1855 23.8333 15.6519 24.3187 15.6519 24.9167ZM21.584 17.6226L18.4108 17.0733C18.0216 17.0062 17.7388 16.6595 17.7388 16.25C17.7388 15.6531 18.2063 15.1667 18.7823 15.1667H21.1488C21.5203 15.1667 21.8667 15.3747 22.0535 15.7083C22.3405 16.2262 22.977 16.4028 23.4789 16.1038C23.9776 15.8037 24.1488 15.1418 23.8587 14.6239C23.3015 13.6218 22.2622 12.9989 21.1478 12.9989H20.8681V11.9156C20.8681 11.3176 20.4017 10.8322 19.8247 10.8322C19.2477 10.8322 18.7812 11.3176 18.7812 11.9156V12.9989C17.0553 12.9989 15.6508 14.4571 15.6508 16.2489C15.6508 17.7222 16.6672 18.9681 18.0665 19.2097L21.2396 19.7589C21.6288 19.8261 21.9116 20.1728 21.9116 20.5823C21.9116 21.1792 21.4441 21.6656 20.8681 21.6656H18.5016C18.1301 21.6656 17.7837 21.4576 17.5969 21.1239C17.3099 20.605 16.6724 20.4284 16.1715 20.7285C15.6728 21.0286 15.5016 21.6905 15.7917 22.2083C16.3489 23.2104 17.3882 23.8323 18.5026 23.8323H18.7823V24.9156C18.7823 25.5136 19.2487 25.9989 19.8257 25.9989C20.4028 25.9989 20.8692 25.5136 20.8692 24.9156V23.8323C22.5951 23.8323 23.9996 22.3741 23.9996 20.5823C23.9996 19.1089 22.9832 17.8642 21.584 17.6226ZM6.78249 16.25H12.5215C13.0985 16.25 13.565 15.7647 13.565 15.1667C13.565 14.5687 13.0985 14.0833 12.5215 14.0833H6.78249C5.3446 14.0833 4.17384 15.2988 4.17384 16.7917V18.9583C4.17384 20.4512 5.3446 21.6667 6.78249 21.6667H12.5215C13.0985 21.6667 13.565 21.1813 13.565 20.5833C13.565 19.9853 13.0985 19.5 12.5215 19.5H6.78249C6.49449 19.5 6.26076 19.2573 6.26076 18.9583V16.7917C6.26076 16.4927 6.49449 16.25 6.78249 16.25ZM5.2173 11.9167H7.30422C7.8802 11.9167 8.34767 11.4313 8.34767 10.8333C8.34767 10.2353 7.8802 9.75 7.30422 9.75H5.2173C4.64131 9.75 4.17384 10.2353 4.17384 10.8333C4.17384 11.4313 4.64131 11.9167 5.2173 11.9167ZM5.2173 7.58333H7.30422C7.8802 7.58333 8.34767 7.098 8.34767 6.5C8.34767 5.902 7.8802 5.41667 7.30422 5.41667H5.2173C4.64131 5.41667 4.17384 5.902 4.17384 6.5C4.17384 7.098 4.64131 7.58333 5.2173 7.58333Z" fill="#505D3A"/>
</svg>
