<svg width="16" height="16" viewBox="0 0 16 16" fill="none" xmlns="http://www.w3.org/2000/svg">
<path d="M15.333 7.33315C15.1561 7.33315 14.9864 7.40339 14.8614 7.52841C14.7363 7.65343 14.666 7.82299 14.666 7.9998C14.6714 9.54994 14.138 11.0538 13.1569 12.2545C12.1759 13.4551 10.808 14.2779 9.28724 14.5822C7.76645 14.8865 6.18712 14.6535 4.8192 13.9229C3.45128 13.1923 2.37969 12.0096 1.78759 10.5768C1.19548 9.1441 1.11963 7.5503 1.573 6.06785C2.02637 4.58541 2.9808 3.30635 4.27317 2.44932C5.56554 1.59228 7.11561 1.21047 8.65843 1.36915C10.2012 1.52782 11.641 2.21713 12.7317 3.31925C12.7098 3.32523 12.6875 3.32991 12.665 3.33325H10.664C10.4871 3.33325 10.3174 3.40349 10.1924 3.52851C10.0673 3.65353 9.997 3.82309 9.997 3.9999C9.997 4.17671 10.0673 4.34627 10.1924 4.47129C10.3174 4.59631 10.4871 4.66655 10.664 4.66655H12.665C13.1957 4.66655 13.7047 4.45584 14.0799 4.08078C14.4552 3.70571 14.666 3.19702 14.666 2.6666V0.66665C14.666 0.489843 14.5957 0.320278 14.4706 0.195257C14.3456 0.0702361 14.1759 0 13.999 0C13.8221 0 13.6524 0.0702361 13.5274 0.195257C13.4023 0.320278 13.332 0.489843 13.332 0.66665V2.04328C11.9663 0.822999 10.2231 0.108108 8.39343 0.0180679C6.5638 -0.0719723 4.75868 0.468293 3.27969 1.54858C1.80071 2.62888 0.737461 4.18375 0.26762 5.95339C-0.202221 7.72302 -0.0501929 9.60021 0.698301 11.2713C1.44679 12.9424 2.74641 14.3061 4.37998 15.1345C6.01355 15.963 7.88212 16.2061 9.67343 15.8231C11.4648 15.4401 13.0703 14.4543 14.2218 13.0304C15.3733 11.6065 16.001 9.83068 16 7.9998C16 7.82299 15.9297 7.65343 15.8046 7.52841C15.6796 7.40339 15.5099 7.33315 15.333 7.33315Z" fill="#1EBA4B"/>
<path d="M7.996 3.9999C7.8191 3.9999 7.64945 4.07014 7.52436 4.19516C7.39927 4.32018 7.329 4.48974 7.329 4.66655V7.9998C7.32904 8.17659 7.39934 8.34613 7.52443 8.47112L9.52543 10.4711C9.65123 10.5925 9.81971 10.6597 9.9946 10.6582C10.1695 10.6567 10.3368 10.5866 10.4604 10.4629C10.5841 10.3393 10.6543 10.1721 10.6558 9.99735C10.6573 9.82255 10.5901 9.65416 10.4686 9.52843L8.663 7.72381V4.66655C8.663 4.48974 8.59273 4.32018 8.46764 4.19516C8.34255 4.07014 8.1729 3.9999 7.996 3.9999Z" fill="#1EBA4B"/>
</svg>
